<svg width="436" height="1153" viewBox="0 0 436 1153" fill="none" xmlns="http://www.w3.org/2000/svg">
<circle cx="228" cy="970.796" r="3" transform="rotate(180 228 970.796)" fill="white"/>
<circle cx="248" cy="950.796" r="3" transform="rotate(180 248 950.796)" fill="white"/>
<circle cx="196" cy="990.796" r="3" transform="rotate(180 196 990.796)" fill="white"/>
<circle cx="226" cy="990.796" r="3" transform="rotate(180 226 990.796)" fill="white"/>
<circle cx="196" cy="969.796" r="3" transform="rotate(180 196 969.796)" fill="white"/>
<circle cx="166" cy="1010.8" r="3" transform="rotate(180 166 1010.8)" fill="white"/>
<circle cx="166" cy="979.796" r="3" transform="rotate(180 166 979.796)" fill="white"/>
<circle cx="166" cy="928.796" r="3" transform="rotate(180 166 928.796)" fill="white"/>
<circle cx="206" cy="928.796" r="3" transform="rotate(180 206 928.796)" fill="white"/>
<ellipse cx="320" cy="853.296" rx="2" ry="1.5" transform="rotate(180 320 853.296)" fill="white"/>
<ellipse cx="331.5" cy="841.796" rx="1.5" ry="2" transform="rotate(180 331.5 841.796)" fill="white"/>
<ellipse cx="301.5" cy="864.796" rx="1.5" ry="2" transform="rotate(180 301.5 864.796)" fill="white"/>
<ellipse cx="318.5" cy="864.796" rx="1.5" ry="2" transform="rotate(180 318.5 864.796)" fill="white"/>
<ellipse cx="301.5" cy="852.796" rx="1.5" ry="2" transform="rotate(180 301.5 852.796)" fill="white"/>
<circle cx="284.5" cy="876.296" r="1.5" transform="rotate(180 284.5 876.296)" fill="white"/>
<circle cx="284.5" cy="858.296" r="1.5" transform="rotate(180 284.5 858.296)" fill="white"/>
<circle cx="284.5" cy="829.296" r="1.5" transform="rotate(180 284.5 829.296)" fill="white"/>
<circle cx="307.5" cy="829.296" r="1.5" transform="rotate(180 307.5 829.296)" fill="white"/>
<ellipse cx="270" cy="929.296" rx="2" ry="1.5" transform="rotate(180 270 929.296)" fill="white"/>
<ellipse cx="281.5" cy="917.796" rx="1.5" ry="2" transform="rotate(180 281.5 917.796)" fill="white"/>
<ellipse cx="251.5" cy="940.796" rx="1.5" ry="2" transform="rotate(180 251.5 940.796)" fill="white"/>
<ellipse cx="268.5" cy="940.796" rx="1.5" ry="2" transform="rotate(180 268.5 940.796)" fill="white"/>
<ellipse cx="251.5" cy="928.796" rx="1.5" ry="2" transform="rotate(180 251.5 928.796)" fill="white"/>
<circle cx="234.5" cy="952.296" r="1.5" transform="rotate(180 234.5 952.296)" fill="white"/>
<circle cx="234.5" cy="934.296" r="1.5" transform="rotate(180 234.5 934.296)" fill="white"/>
<circle cx="234.5" cy="905.296" r="1.5" transform="rotate(180 234.5 905.296)" fill="white"/>
<circle cx="257.5" cy="905.296" r="1.5" transform="rotate(180 257.5 905.296)" fill="white"/>
<ellipse cx="136" cy="1049.3" rx="2" ry="1.5" transform="rotate(180 136 1049.3)" fill="white"/>
<ellipse cx="147.5" cy="1037.8" rx="1.5" ry="2" transform="rotate(180 147.5 1037.8)" fill="white"/>
<ellipse cx="117.5" cy="1060.8" rx="1.5" ry="2" transform="rotate(180 117.5 1060.8)" fill="white"/>
<ellipse cx="134.5" cy="1060.8" rx="1.5" ry="2" transform="rotate(180 134.5 1060.8)" fill="white"/>
<ellipse cx="117.5" cy="1048.8" rx="1.5" ry="2" transform="rotate(180 117.5 1048.8)" fill="white"/>
<circle cx="100.5" cy="1072.3" r="1.5" transform="rotate(180 100.5 1072.3)" fill="white"/>
<circle cx="100.5" cy="1054.3" r="1.5" transform="rotate(180 100.5 1054.3)" fill="white"/>
<circle cx="100.5" cy="1025.3" r="1.5" transform="rotate(180 100.5 1025.3)" fill="white"/>
<circle cx="123.5" cy="1025.3" r="1.5" transform="rotate(180 123.5 1025.3)" fill="white"/>
<ellipse cx="203" cy="863.296" rx="2" ry="1.5" transform="rotate(180 203 863.296)" fill="white"/>
<ellipse cx="214.5" cy="851.796" rx="1.5" ry="2" transform="rotate(180 214.5 851.796)" fill="white"/>
<ellipse cx="184.5" cy="874.796" rx="1.5" ry="2" transform="rotate(180 184.5 874.796)" fill="white"/>
<ellipse cx="201.5" cy="874.796" rx="1.5" ry="2" transform="rotate(180 201.5 874.796)" fill="white"/>
<ellipse cx="184.5" cy="862.796" rx="1.5" ry="2" transform="rotate(180 184.5 862.796)" fill="white"/>
<circle cx="167.5" cy="886.296" r="1.5" transform="rotate(180 167.5 886.296)" fill="white"/>
<circle cx="167.5" cy="868.296" r="1.5" transform="rotate(180 167.5 868.296)" fill="white"/>
<circle cx="167.5" cy="839.296" r="1.5" transform="rotate(180 167.5 839.296)" fill="white"/>
<circle cx="190.5" cy="839.296" r="1.5" transform="rotate(180 190.5 839.296)" fill="white"/>
<ellipse cx="139" cy="963.296" rx="2" ry="1.5" transform="rotate(180 139 963.296)" fill="white"/>
<ellipse cx="150.5" cy="951.796" rx="1.5" ry="2" transform="rotate(180 150.5 951.796)" fill="white"/>
<ellipse cx="120.5" cy="974.796" rx="1.5" ry="2" transform="rotate(180 120.5 974.796)" fill="white"/>
<ellipse cx="137.5" cy="974.796" rx="1.5" ry="2" transform="rotate(180 137.5 974.796)" fill="white"/>
<ellipse cx="120.5" cy="962.796" rx="1.5" ry="2" transform="rotate(180 120.5 962.796)" fill="white"/>
<circle cx="103.5" cy="986.296" r="1.5" transform="rotate(180 103.5 986.296)" fill="white"/>
<circle cx="103.5" cy="968.296" r="1.5" transform="rotate(180 103.5 968.296)" fill="white"/>
<circle cx="103.5" cy="939.296" r="1.5" transform="rotate(180 103.5 939.296)" fill="white"/>
<circle cx="126.5" cy="939.296" r="1.5" transform="rotate(180 126.5 939.296)" fill="white"/>
<ellipse cx="191.202" cy="990.041" rx="2.99317" ry="3.00616" transform="rotate(138.862 191.202 990.041)" fill="white"/>
<ellipse cx="193.045" cy="961.82" rx="2.99317" ry="3.00616" transform="rotate(138.862 193.045 961.82)" fill="white"/>
<ellipse cx="180.342" cy="1026.14" rx="2.99317" ry="3.00616" transform="rotate(138.862 180.342 1026.14)" fill="white"/>
<ellipse cx="202.885" cy="1006.45" rx="2.99317" ry="3.00616" transform="rotate(138.862 202.885 1006.45)" fill="white"/>
<ellipse cx="166.499" cy="1010.29" rx="2.99317" ry="3.00616" transform="rotate(138.862 166.499 1010.29)" fill="white"/>
<ellipse cx="170.983" cy="1060.92" rx="2.99317" ry="3.00616" transform="rotate(138.862 170.983 1060.92)" fill="white"/>
<ellipse cx="150.549" cy="1037.53" rx="2.99317" ry="3.00616" transform="rotate(138.862 150.549 1037.53)" fill="white"/>
<ellipse cx="116.928" cy="999.041" rx="2.99317" ry="3.00616" transform="rotate(138.862 116.928 999.041)" fill="white"/>
<ellipse cx="146.983" cy="972.786" rx="2.99317" ry="3.00616" transform="rotate(138.862 146.983 972.786)" fill="white"/>
<ellipse cx="182.872" cy="840.981" rx="1.99544" ry="1.50308" transform="rotate(138.862 182.872 840.981)" fill="white"/>
<ellipse cx="183.933" cy="824.753" rx="1.49658" ry="2.00411" transform="rotate(138.862 183.933 824.753)" fill="white"/>
<ellipse cx="176.554" cy="861.802" rx="1.49658" ry="2.00411" transform="rotate(138.862 176.554 861.802)" fill="white"/>
<ellipse cx="189.328" cy="850.644" rx="1.49658" ry="2.00411" transform="rotate(138.862 189.328 850.644)" fill="white"/>
<ellipse cx="168.644" cy="852.746" rx="1.49658" ry="2.00411" transform="rotate(138.862 168.644 852.746)" fill="white"/>
<ellipse cx="171.361" cy="881.64" rx="1.49658" ry="1.50308" transform="rotate(138.862 171.361 881.64)" fill="white"/>
<ellipse cx="159.493" cy="868.055" rx="1.49658" ry="1.50308" transform="rotate(138.862 159.493 868.055)" fill="white"/>
<ellipse cx="140.376" cy="846.17" rx="1.49658" ry="1.50308" transform="rotate(138.862 140.376 846.17)" fill="white"/>
<ellipse cx="157.657" cy="831.073" rx="1.49658" ry="1.50308" transform="rotate(138.862 157.657 831.073)" fill="white"/>
<ellipse cx="195.403" cy="931.155" rx="1.99544" ry="1.50308" transform="rotate(138.862 195.403 931.155)" fill="white"/>
<ellipse cx="196.465" cy="914.928" rx="1.49658" ry="2.00411" transform="rotate(138.862 196.465 914.928)" fill="white"/>
<ellipse cx="189.086" cy="951.976" rx="1.49658" ry="2.00411" transform="rotate(138.862 189.086 951.976)" fill="white"/>
<ellipse cx="201.859" cy="940.818" rx="1.49658" ry="2.00411" transform="rotate(138.862 201.859 940.818)" fill="white"/>
<ellipse cx="181.172" cy="942.92" rx="1.49658" ry="2.00411" transform="rotate(138.862 181.172 942.92)" fill="white"/>
<ellipse cx="183.892" cy="971.813" rx="1.49658" ry="1.50308" transform="rotate(138.862 183.892 971.813)" fill="white"/>
<ellipse cx="172.025" cy="958.229" rx="1.49658" ry="1.50308" transform="rotate(138.862 172.025 958.229)" fill="white"/>
<ellipse cx="152.907" cy="936.344" rx="1.49658" ry="1.50308" transform="rotate(138.862 152.907 936.344)" fill="white"/>
<ellipse cx="170.189" cy="921.247" rx="1.49658" ry="1.50308" transform="rotate(138.862 170.189 921.247)" fill="white"/>
<ellipse cx="173.821" cy="1109.67" rx="1.99544" ry="1.50308" transform="rotate(138.862 173.821 1109.67)" fill="white"/>
<ellipse cx="174.883" cy="1093.44" rx="1.49658" ry="2.00411" transform="rotate(138.862 174.883 1093.44)" fill="white"/>
<ellipse cx="167.5" cy="1130.49" rx="1.49658" ry="2.00411" transform="rotate(138.862 167.5 1130.49)" fill="white"/>
<ellipse cx="180.277" cy="1119.33" rx="1.49658" ry="2.00411" transform="rotate(138.862 180.277 1119.33)" fill="white"/>
<ellipse cx="159.59" cy="1121.44" rx="1.49658" ry="2.00411" transform="rotate(138.862 159.59 1121.44)" fill="white"/>
<ellipse cx="162.31" cy="1150.33" rx="1.49658" ry="1.50308" transform="rotate(138.862 162.31 1150.33)" fill="white"/>
<ellipse cx="150.443" cy="1136.74" rx="1.49658" ry="1.50308" transform="rotate(138.862 150.443 1136.74)" fill="white"/>
<ellipse cx="131.325" cy="1114.86" rx="1.49658" ry="1.50308" transform="rotate(138.862 131.325 1114.86)" fill="white"/>
<ellipse cx="148.607" cy="1099.76" rx="1.49658" ry="1.50308" transform="rotate(138.862 148.607 1099.76)" fill="white"/>
<ellipse cx="101.551" cy="925.323" rx="1.99544" ry="1.50308" transform="rotate(138.862 101.551 925.323)" fill="white"/>
<ellipse cx="102.609" cy="909.096" rx="1.49658" ry="2.00411" transform="rotate(138.862 102.609 909.096)" fill="white"/>
<ellipse cx="95.2302" cy="946.145" rx="1.49658" ry="2.00411" transform="rotate(138.862 95.2302 946.145)" fill="white"/>
<ellipse cx="108.004" cy="934.987" rx="1.49658" ry="2.00411" transform="rotate(138.862 108.004 934.987)" fill="white"/>
<ellipse cx="87.3201" cy="937.089" rx="1.49658" ry="2.00411" transform="rotate(138.862 87.3201 937.089)" fill="white"/>
<ellipse cx="90.0364" cy="965.982" rx="1.49658" ry="1.50308" transform="rotate(138.862 90.0364 965.982)" fill="white"/>
<ellipse cx="78.1731" cy="952.398" rx="1.49658" ry="1.50308" transform="rotate(138.862 78.1731 952.398)" fill="white"/>
<ellipse cx="59.0559" cy="930.513" rx="1.49658" ry="1.50308" transform="rotate(138.862 59.0559 930.513)" fill="white"/>
<ellipse cx="76.3372" cy="915.416" rx="1.49658" ry="1.50308" transform="rotate(138.862 76.3372 915.416)" fill="white"/>
<ellipse cx="119.383" cy="1042.8" rx="1.99544" ry="1.50308" transform="rotate(138.862 119.383 1042.8)" fill="white"/>
<ellipse cx="120.441" cy="1026.57" rx="1.49658" ry="2.00411" transform="rotate(138.862 120.441 1026.57)" fill="white"/>
<ellipse cx="113.062" cy="1063.62" rx="1.49658" ry="2.00411" transform="rotate(138.862 113.062 1063.62)" fill="white"/>
<ellipse cx="125.836" cy="1052.46" rx="1.49658" ry="2.00411" transform="rotate(138.862 125.836 1052.46)" fill="white"/>
<ellipse cx="105.152" cy="1054.56" rx="1.49658" ry="2.00411" transform="rotate(138.862 105.152 1054.56)" fill="white"/>
<ellipse cx="107.868" cy="1083.46" rx="1.49658" ry="1.50308" transform="rotate(138.862 107.868 1083.46)" fill="white"/>
<ellipse cx="96.0012" cy="1069.87" rx="1.49658" ry="1.50308" transform="rotate(138.862 96.0012 1069.87)" fill="white"/>
<ellipse cx="76.884" cy="1047.99" rx="1.49658" ry="1.50308" transform="rotate(138.862 76.884 1047.99)" fill="white"/>
<ellipse cx="94.1692" cy="1032.89" rx="1.49658" ry="1.50308" transform="rotate(138.862 94.1692 1032.89)" fill="white"/>
<ellipse cx="265.202" cy="713.392" rx="2.99317" ry="3.00616" transform="rotate(138.862 265.202 713.392)" fill="white"/>
<ellipse cx="267.045" cy="685.171" rx="2.99317" ry="3.00616" transform="rotate(138.862 267.045 685.171)" fill="white"/>
<ellipse cx="254.342" cy="749.489" rx="2.99317" ry="3.00616" transform="rotate(138.862 254.342 749.489)" fill="white"/>
<ellipse cx="276.885" cy="729.798" rx="2.99317" ry="3.00616" transform="rotate(138.862 276.885 729.798)" fill="white"/>
<ellipse cx="240.499" cy="733.642" rx="2.99317" ry="3.00616" transform="rotate(138.862 240.499 733.642)" fill="white"/>
<ellipse cx="244.983" cy="784.274" rx="2.99317" ry="3.00616" transform="rotate(138.862 244.983 784.274)" fill="white"/>
<ellipse cx="224.549" cy="760.879" rx="2.99317" ry="3.00616" transform="rotate(138.862 224.549 760.879)" fill="white"/>
<ellipse cx="190.928" cy="722.391" rx="2.99317" ry="3.00616" transform="rotate(138.862 190.928 722.391)" fill="white"/>
<ellipse cx="220.983" cy="696.136" rx="2.99317" ry="3.00616" transform="rotate(138.862 220.983 696.136)" fill="white"/>
<ellipse cx="256.872" cy="564.332" rx="1.99544" ry="1.50308" transform="rotate(138.862 256.872 564.332)" fill="white"/>
<ellipse cx="257.933" cy="548.104" rx="1.49658" ry="2.00411" transform="rotate(138.862 257.933 548.104)" fill="white"/>
<ellipse cx="250.554" cy="585.153" rx="1.49658" ry="2.00411" transform="rotate(138.862 250.554 585.153)" fill="white"/>
<ellipse cx="263.328" cy="573.994" rx="1.49658" ry="2.00411" transform="rotate(138.862 263.328 573.994)" fill="white"/>
<ellipse cx="242.644" cy="576.097" rx="1.49658" ry="2.00411" transform="rotate(138.862 242.644 576.097)" fill="white"/>
<ellipse cx="245.361" cy="604.99" rx="1.49658" ry="1.50308" transform="rotate(138.862 245.361 604.99)" fill="white"/>
<ellipse cx="233.493" cy="591.406" rx="1.49658" ry="1.50308" transform="rotate(138.862 233.493 591.406)" fill="white"/>
<ellipse cx="214.376" cy="569.521" rx="1.49658" ry="1.50308" transform="rotate(138.862 214.376 569.521)" fill="white"/>
<ellipse cx="231.657" cy="554.424" rx="1.49658" ry="1.50308" transform="rotate(138.862 231.657 554.424)" fill="white"/>
<ellipse cx="269.403" cy="654.505" rx="1.99544" ry="1.50308" transform="rotate(138.862 269.403 654.505)" fill="white"/>
<ellipse cx="270.465" cy="638.278" rx="1.49658" ry="2.00411" transform="rotate(138.862 270.465 638.278)" fill="white"/>
<ellipse cx="263.086" cy="675.327" rx="1.49658" ry="2.00411" transform="rotate(138.862 263.086 675.327)" fill="white"/>
<ellipse cx="275.859" cy="664.169" rx="1.49658" ry="2.00411" transform="rotate(138.862 275.859 664.169)" fill="white"/>
<ellipse cx="255.172" cy="666.271" rx="1.49658" ry="2.00411" transform="rotate(138.862 255.172 666.271)" fill="white"/>
<ellipse cx="257.892" cy="695.164" rx="1.49658" ry="1.50308" transform="rotate(138.862 257.892 695.164)" fill="white"/>
<ellipse cx="246.025" cy="681.58" rx="1.49658" ry="1.50308" transform="rotate(138.862 246.025 681.58)" fill="white"/>
<ellipse cx="226.907" cy="659.694" rx="1.49658" ry="1.50308" transform="rotate(138.862 226.907 659.694)" fill="white"/>
<ellipse cx="244.189" cy="644.598" rx="1.49658" ry="1.50308" transform="rotate(138.862 244.189 644.598)" fill="white"/>
<ellipse cx="247.821" cy="833.021" rx="1.99544" ry="1.50308" transform="rotate(138.862 247.821 833.021)" fill="white"/>
<ellipse cx="248.883" cy="816.794" rx="1.49658" ry="2.00411" transform="rotate(138.862 248.883 816.794)" fill="white"/>
<ellipse cx="241.5" cy="853.842" rx="1.49658" ry="2.00411" transform="rotate(138.862 241.5 853.842)" fill="white"/>
<ellipse cx="254.277" cy="842.684" rx="1.49658" ry="2.00411" transform="rotate(138.862 254.277 842.684)" fill="white"/>
<ellipse cx="233.59" cy="844.786" rx="1.49658" ry="2.00411" transform="rotate(138.862 233.59 844.786)" fill="white"/>
<ellipse cx="236.31" cy="873.679" rx="1.49658" ry="1.50308" transform="rotate(138.862 236.31 873.679)" fill="white"/>
<ellipse cx="224.443" cy="860.095" rx="1.49658" ry="1.50308" transform="rotate(138.862 224.443 860.095)" fill="white"/>
<ellipse cx="205.325" cy="838.209" rx="1.49658" ry="1.50308" transform="rotate(138.862 205.325 838.209)" fill="white"/>
<ellipse cx="222.607" cy="823.113" rx="1.49658" ry="1.50308" transform="rotate(138.862 222.607 823.113)" fill="white"/>
<ellipse cx="175.551" cy="648.674" rx="1.99544" ry="1.50308" transform="rotate(138.862 175.551 648.674)" fill="white"/>
<ellipse cx="176.609" cy="632.447" rx="1.49658" ry="2.00411" transform="rotate(138.862 176.609 632.447)" fill="white"/>
<ellipse cx="169.23" cy="669.496" rx="1.49658" ry="2.00411" transform="rotate(138.862 169.23 669.496)" fill="white"/>
<ellipse cx="182.004" cy="658.338" rx="1.49658" ry="2.00411" transform="rotate(138.862 182.004 658.338)" fill="white"/>
<ellipse cx="161.32" cy="660.44" rx="1.49658" ry="2.00411" transform="rotate(138.862 161.32 660.44)" fill="white"/>
<ellipse cx="164.036" cy="689.333" rx="1.49658" ry="1.50308" transform="rotate(138.862 164.036 689.333)" fill="white"/>
<ellipse cx="152.173" cy="675.749" rx="1.49658" ry="1.50308" transform="rotate(138.862 152.173 675.749)" fill="white"/>
<ellipse cx="133.056" cy="653.863" rx="1.49658" ry="1.50308" transform="rotate(138.862 133.056 653.863)" fill="white"/>
<ellipse cx="150.337" cy="638.767" rx="1.49658" ry="1.50308" transform="rotate(138.862 150.337 638.767)" fill="white"/>
<ellipse cx="193.383" cy="766.149" rx="1.99544" ry="1.50308" transform="rotate(138.862 193.383 766.149)" fill="white"/>
<ellipse cx="194.441" cy="749.922" rx="1.49658" ry="2.00411" transform="rotate(138.862 194.441 749.922)" fill="white"/>
<ellipse cx="187.062" cy="786.971" rx="1.49658" ry="2.00411" transform="rotate(138.862 187.062 786.971)" fill="white"/>
<ellipse cx="199.836" cy="775.813" rx="1.49658" ry="2.00411" transform="rotate(138.862 199.836 775.813)" fill="white"/>
<ellipse cx="179.152" cy="777.915" rx="1.49658" ry="2.00411" transform="rotate(138.862 179.152 777.915)" fill="white"/>
<ellipse cx="181.868" cy="806.809" rx="1.49658" ry="1.50308" transform="rotate(138.862 181.868 806.809)" fill="white"/>
<ellipse cx="170.001" cy="793.225" rx="1.49658" ry="1.50308" transform="rotate(138.862 170.001 793.225)" fill="white"/>
<ellipse cx="150.884" cy="771.339" rx="1.49658" ry="1.50308" transform="rotate(138.862 150.884 771.339)" fill="white"/>
<ellipse cx="168.169" cy="756.242" rx="1.49658" ry="1.50308" transform="rotate(138.862 168.169 756.242)" fill="white"/>
<ellipse cx="321.596" cy="626.382" rx="2.16719" ry="2.1766" transform="rotate(127.276 321.596 626.382)" fill="white"/>
<ellipse cx="318.799" cy="606.097" rx="2.16719" ry="2.1766" transform="rotate(127.276 318.799 606.097)" fill="white"/>
<ellipse cx="319.143" cy="653.565" rx="2.16719" ry="2.1766" transform="rotate(127.276 319.143 653.565)" fill="white"/>
<ellipse cx="332.268" cy="636.32" rx="2.16719" ry="2.1766" transform="rotate(127.276 332.268 636.32)" fill="white"/>
<ellipse cx="307.018" cy="644.337" rx="2.16719" ry="2.1766" transform="rotate(127.276 307.018 644.337)" fill="white"/>
<ellipse cx="317.565" cy="679.599" rx="2.16719" ry="2.1766" transform="rotate(127.276 317.565 679.599)" fill="white"/>
<ellipse cx="299.666" cy="665.977" rx="2.16719" ry="2.1766" transform="rotate(127.276 299.666 665.977)" fill="white"/>
<ellipse cx="270.221" cy="643.566" rx="2.16719" ry="2.1766" transform="rotate(127.276 270.221 643.566)" fill="white"/>
<ellipse cx="287.721" cy="620.573" rx="2.16719" ry="2.1766" transform="rotate(127.276 287.721 620.573)" fill="white"/>
<ellipse cx="294.013" cy="521.866" rx="1.44479" ry="1.0883" transform="rotate(127.276 294.013 521.866)" fill="white"/>
<ellipse cx="292.404" cy="510.202" rx="1.08359" ry="1.45106" transform="rotate(127.276 292.404 510.202)" fill="white"/>
<ellipse cx="292.56" cy="537.553" rx="1.08359" ry="1.45106" transform="rotate(127.276 292.56 537.553)" fill="white"/>
<ellipse cx="299.998" cy="527.781" rx="1.08359" ry="1.45106" transform="rotate(127.276 299.998 527.781)" fill="white"/>
<ellipse cx="285.63" cy="532.28" rx="1.08359" ry="1.45106" transform="rotate(127.276 285.63 532.28)" fill="white"/>
<ellipse cx="291.759" cy="552.379" rx="1.08359" ry="1.0883" transform="rotate(127.276 291.759 552.379)" fill="white"/>
<ellipse cx="281.368" cy="544.469" rx="1.08359" ry="1.0883" transform="rotate(127.276 281.368 544.469)" fill="white"/>
<ellipse cx="264.626" cy="531.726" rx="1.08359" ry="1.0883" transform="rotate(127.276 264.626 531.726)" fill="white"/>
<ellipse cx="274.689" cy="518.505" rx="1.08359" ry="1.0883" transform="rotate(127.276 274.689 518.505)" fill="white"/>
<ellipse cx="316.013" cy="584.004" rx="1.44479" ry="1.0883" transform="rotate(127.276 316.013 584.004)" fill="white"/>
<ellipse cx="314.408" cy="572.339" rx="1.08359" ry="1.45106" transform="rotate(127.276 314.408 572.339)" fill="white"/>
<ellipse cx="314.56" cy="599.691" rx="1.08359" ry="1.45106" transform="rotate(127.276 314.56 599.691)" fill="white"/>
<ellipse cx="321.998" cy="589.919" rx="1.08359" ry="1.45106" transform="rotate(127.276 321.998 589.919)" fill="white"/>
<ellipse cx="307.63" cy="594.417" rx="1.08359" ry="1.45106" transform="rotate(127.276 307.63 594.417)" fill="white"/>
<ellipse cx="313.759" cy="614.516" rx="1.08359" ry="1.0883" transform="rotate(127.276 313.759 614.516)" fill="white"/>
<ellipse cx="303.368" cy="606.607" rx="1.08359" ry="1.0883" transform="rotate(127.276 303.368 606.607)" fill="white"/>
<ellipse cx="286.626" cy="593.863" rx="1.08359" ry="1.0883" transform="rotate(127.276 286.626 593.863)" fill="white"/>
<ellipse cx="296.689" cy="580.642" rx="1.08359" ry="1.0883" transform="rotate(127.276 296.689 580.642)" fill="white"/>
<ellipse cx="326.665" cy="713.761" rx="1.44479" ry="1.0883" transform="rotate(127.276 326.665 713.761)" fill="white"/>
<ellipse cx="325.056" cy="702.098" rx="1.08359" ry="1.45106" transform="rotate(127.276 325.056 702.098)" fill="white"/>
<ellipse cx="325.209" cy="729.449" rx="1.08359" ry="1.45106" transform="rotate(127.276 325.209 729.449)" fill="white"/>
<ellipse cx="332.646" cy="719.677" rx="1.08359" ry="1.45106" transform="rotate(127.276 332.646 719.677)" fill="white"/>
<ellipse cx="318.279" cy="724.176" rx="1.08359" ry="1.45106" transform="rotate(127.276 318.279 724.176)" fill="white"/>
<ellipse cx="324.407" cy="744.274" rx="1.08359" ry="1.0883" transform="rotate(127.276 324.407 744.274)" fill="white"/>
<ellipse cx="314.017" cy="736.365" rx="1.08359" ry="1.0883" transform="rotate(127.276 314.017 736.365)" fill="white"/>
<ellipse cx="297.275" cy="723.621" rx="1.08359" ry="1.0883" transform="rotate(127.276 297.275 723.621)" fill="white"/>
<ellipse cx="307.341" cy="710.4" rx="1.08359" ry="1.0883" transform="rotate(127.276 307.341 710.4)" fill="white"/>
<ellipse cx="248.595" cy="593.514" rx="1.44479" ry="1.0883" transform="rotate(127.276 248.595 593.514)" fill="white"/>
<ellipse cx="246.99" cy="581.851" rx="1.08359" ry="1.45106" transform="rotate(127.276 246.99 581.851)" fill="white"/>
<ellipse cx="247.142" cy="609.202" rx="1.08359" ry="1.45106" transform="rotate(127.276 247.142 609.202)" fill="white"/>
<ellipse cx="254.58" cy="599.43" rx="1.08359" ry="1.45106" transform="rotate(127.276 254.58 599.43)" fill="white"/>
<ellipse cx="240.213" cy="603.929" rx="1.08359" ry="1.45106" transform="rotate(127.276 240.213 603.929)" fill="white"/>
<ellipse cx="246.345" cy="624.027" rx="1.08359" ry="1.0883" transform="rotate(127.276 246.345 624.027)" fill="white"/>
<ellipse cx="235.95" cy="616.118" rx="1.08359" ry="1.0883" transform="rotate(127.276 235.95 616.118)" fill="white"/>
<ellipse cx="219.208" cy="603.375" rx="1.08359" ry="1.0883" transform="rotate(127.276 219.208 603.375)" fill="white"/>
<ellipse cx="229.271" cy="590.154" rx="1.08359" ry="1.0883" transform="rotate(127.276 229.271 590.154)" fill="white"/>
<ellipse cx="278.325" cy="674.246" rx="1.44479" ry="1.0883" transform="rotate(127.276 278.325 674.246)" fill="white"/>
<ellipse cx="276.716" cy="662.583" rx="1.08359" ry="1.45106" transform="rotate(127.276 276.716 662.583)" fill="white"/>
<ellipse cx="276.873" cy="689.934" rx="1.08359" ry="1.45106" transform="rotate(127.276 276.873 689.934)" fill="white"/>
<ellipse cx="284.31" cy="680.162" rx="1.08359" ry="1.45106" transform="rotate(127.276 284.31 680.162)" fill="white"/>
<ellipse cx="269.943" cy="684.661" rx="1.08359" ry="1.45106" transform="rotate(127.276 269.943 684.661)" fill="white"/>
<ellipse cx="276.071" cy="704.76" rx="1.08359" ry="1.0883" transform="rotate(127.276 276.071 704.76)" fill="white"/>
<ellipse cx="265.681" cy="696.85" rx="1.08359" ry="1.0883" transform="rotate(127.276 265.681 696.85)" fill="white"/>
<ellipse cx="248.939" cy="684.106" rx="1.08359" ry="1.0883" transform="rotate(127.276 248.939 684.106)" fill="white"/>
<ellipse cx="259.001" cy="670.885" rx="1.08359" ry="1.0883" transform="rotate(127.276 259.001 670.885)" fill="white"/>
<ellipse cx="307.561" cy="429.168" rx="2.99317" ry="3.00616" transform="rotate(105.942 307.561 429.168)" fill="white"/>
<ellipse cx="293.772" cy="404.476" rx="2.99317" ry="3.00616" transform="rotate(105.942 293.772 404.476)" fill="white"/>
<ellipse cx="318.065" cy="465.371" rx="2.99317" ry="3.00616" transform="rotate(105.942 318.065 465.371)" fill="white"/>
<ellipse cx="326.283" cy="436.59" rx="2.99317" ry="3.00616" transform="rotate(105.942 326.283 436.59)" fill="white"/>
<ellipse cx="297.83" cy="459.592" rx="2.99317" ry="3.00616" transform="rotate(105.942 297.83 459.592)" fill="white"/>
<ellipse cx="329.112" cy="499.656" rx="2.99317" ry="3.00616" transform="rotate(105.942 329.112 499.656)" fill="white"/>
<ellipse cx="299.244" cy="491.124" rx="2.99317" ry="3.00616" transform="rotate(105.942 299.244 491.124)" fill="white"/>
<ellipse cx="250.104" cy="477.087" rx="2.99317" ry="3.00616" transform="rotate(105.942 250.104 477.087)" fill="white"/>
<ellipse cx="261.065" cy="438.713" rx="2.99317" ry="3.00616" transform="rotate(105.942 261.065 438.713)" fill="white"/>
<ellipse cx="219.561" cy="308.568" rx="1.99544" ry="1.50308" transform="rotate(105.942 219.561 308.568)" fill="white"/>
<ellipse cx="211.631" cy="294.37" rx="1.49658" ry="2.00411" transform="rotate(105.942 211.631 294.37)" fill="white"/>
<ellipse cx="225.572" cy="329.48" rx="1.49658" ry="2.00411" transform="rotate(105.942 225.572 329.48)" fill="white"/>
<ellipse cx="230.232" cy="313.172" rx="1.49658" ry="2.00411" transform="rotate(105.942 230.232 313.172)" fill="white"/>
<ellipse cx="214.01" cy="326.177" rx="1.49658" ry="2.00411" transform="rotate(105.942 214.01 326.177)" fill="white"/>
<ellipse cx="231.995" cy="348.954" rx="1.49658" ry="1.50308" transform="rotate(105.942 231.995 348.954)" fill="white"/>
<ellipse cx="214.651" cy="344" rx="1.49658" ry="1.50308" transform="rotate(105.942 214.651 344)" fill="white"/>
<ellipse cx="186.706" cy="336.019" rx="1.49658" ry="1.50308" transform="rotate(105.942 186.706 336.019)" fill="white"/>
<ellipse cx="193.011" cy="313.954" rx="1.49658" ry="1.50308" transform="rotate(105.942 193.011 313.954)" fill="white"/>
<ellipse cx="279.085" cy="377.453" rx="1.99544" ry="1.50308" transform="rotate(105.942 279.085 377.453)" fill="white"/>
<ellipse cx="271.158" cy="363.255" rx="1.49658" ry="2.00411" transform="rotate(105.942 271.158 363.255)" fill="white"/>
<ellipse cx="285.095" cy="398.366" rx="1.49658" ry="2.00411" transform="rotate(105.942 285.095 398.366)" fill="white"/>
<ellipse cx="289.756" cy="382.057" rx="1.49658" ry="2.00411" transform="rotate(105.942 289.756 382.057)" fill="white"/>
<ellipse cx="273.533" cy="395.063" rx="1.49658" ry="2.00411" transform="rotate(105.942 273.533 395.063)" fill="white"/>
<ellipse cx="291.519" cy="417.84" rx="1.49658" ry="1.50308" transform="rotate(105.942 291.519 417.84)" fill="white"/>
<ellipse cx="274.175" cy="412.886" rx="1.49658" ry="1.50308" transform="rotate(105.942 274.175 412.886)" fill="white"/>
<ellipse cx="246.234" cy="404.904" rx="1.49658" ry="1.50308" transform="rotate(105.942 246.234 404.904)" fill="white"/>
<ellipse cx="252.538" cy="382.838" rx="1.49658" ry="1.50308" transform="rotate(105.942 252.538 382.838)" fill="white"/>
<ellipse cx="357.987" cy="539.033" rx="1.99544" ry="1.50308" transform="rotate(105.942 357.987 539.033)" fill="white"/>
<ellipse cx="350.056" cy="524.836" rx="1.49658" ry="2.00411" transform="rotate(105.942 350.056 524.836)" fill="white"/>
<ellipse cx="363.998" cy="559.947" rx="1.49658" ry="2.00411" transform="rotate(105.942 363.998 559.947)" fill="white"/>
<ellipse cx="368.658" cy="543.637" rx="1.49658" ry="2.00411" transform="rotate(105.942 368.658 543.637)" fill="white"/>
<ellipse cx="352.435" cy="556.644" rx="1.49658" ry="2.00411" transform="rotate(105.942 352.435 556.644)" fill="white"/>
<ellipse cx="370.417" cy="579.421" rx="1.49658" ry="1.50308" transform="rotate(105.942 370.417 579.421)" fill="white"/>
<ellipse cx="353.073" cy="574.467" rx="1.49658" ry="1.50308" transform="rotate(105.942 353.073 574.467)" fill="white"/>
<ellipse cx="325.132" cy="566.485" rx="1.49658" ry="1.50308" transform="rotate(105.942 325.132 566.485)" fill="white"/>
<ellipse cx="331.437" cy="544.42" rx="1.49658" ry="1.50308" transform="rotate(105.942 331.437 544.42)" fill="white"/>
<ellipse cx="197.132" cy="423.563" rx="1.99544" ry="1.50308" transform="rotate(105.942 197.132 423.563)" fill="white"/>
<ellipse cx="189.205" cy="409.365" rx="1.49658" ry="2.00411" transform="rotate(105.942 189.205 409.365)" fill="white"/>
<ellipse cx="203.146" cy="444.476" rx="1.49658" ry="2.00411" transform="rotate(105.942 203.146 444.476)" fill="white"/>
<ellipse cx="207.803" cy="428.168" rx="1.49658" ry="2.00411" transform="rotate(105.942 207.803 428.168)" fill="white"/>
<ellipse cx="191.584" cy="441.174" rx="1.49658" ry="2.00411" transform="rotate(105.942 191.584 441.174)" fill="white"/>
<ellipse cx="209.566" cy="463.95" rx="1.49658" ry="1.50308" transform="rotate(105.942 209.566 463.95)" fill="white"/>
<ellipse cx="192.222" cy="458.996" rx="1.49658" ry="1.50308" transform="rotate(105.942 192.222 458.996)" fill="white"/>
<ellipse cx="164.28" cy="451.014" rx="1.49658" ry="1.50308" transform="rotate(105.942 164.28 451.014)" fill="white"/>
<ellipse cx="170.585" cy="428.95" rx="1.49658" ry="1.50308" transform="rotate(105.942 170.585 428.95)" fill="white"/>
<ellipse cx="275.948" cy="512.485" rx="1.99544" ry="1.50308" transform="rotate(105.942 275.948 512.485)" fill="white"/>
<ellipse cx="268.017" cy="498.288" rx="1.49658" ry="2.00411" transform="rotate(105.942 268.017 498.288)" fill="white"/>
<ellipse cx="281.959" cy="533.398" rx="1.49658" ry="2.00411" transform="rotate(105.942 281.959 533.398)" fill="white"/>
<ellipse cx="286.615" cy="517.089" rx="1.49658" ry="2.00411" transform="rotate(105.942 286.615 517.089)" fill="white"/>
<ellipse cx="270.396" cy="530.095" rx="1.49658" ry="2.00411" transform="rotate(105.942 270.396 530.095)" fill="white"/>
<ellipse cx="288.378" cy="552.873" rx="1.49658" ry="1.50308" transform="rotate(105.942 288.378 552.873)" fill="white"/>
<ellipse cx="271.034" cy="547.919" rx="1.49658" ry="1.50308" transform="rotate(105.942 271.034 547.919)" fill="white"/>
<ellipse cx="243.093" cy="539.937" rx="1.49658" ry="1.50308" transform="rotate(105.942 243.093 539.937)" fill="white"/>
<ellipse cx="249.398" cy="517.871" rx="1.49658" ry="1.50308" transform="rotate(105.942 249.398 517.871)" fill="white"/>
<ellipse cx="264.547" cy="154.659" rx="2.36389" ry="2.56646" transform="rotate(105.942 264.547 154.659)" fill="white"/>
<ellipse cx="252.426" cy="134.807" rx="2.36389" ry="2.56646" transform="rotate(105.942 252.426 134.807)" fill="white"/>
<ellipse cx="274.074" cy="183.604" rx="2.36389" ry="2.56646" transform="rotate(105.942 274.074 183.604)" fill="white"/>
<ellipse cx="280.57" cy="160.874" rx="2.36389" ry="2.56646" transform="rotate(105.942 280.57 160.874)" fill="white"/>
<ellipse cx="256.801" cy="178.67" rx="2.36389" ry="2.56646" transform="rotate(105.942 256.801 178.67)" fill="white"/>
<ellipse cx="284.035" cy="211.033" rx="2.36389" ry="2.56646" transform="rotate(105.942 284.035 211.033)" fill="white"/>
<ellipse cx="258.535" cy="203.749" rx="2.36389" ry="2.56646" transform="rotate(105.942 258.535 203.749)" fill="white"/>
<ellipse cx="216.582" cy="191.765" rx="2.36389" ry="2.56646" transform="rotate(105.942 216.582 191.765)" fill="white"/>
<ellipse cx="225.238" cy="161.459" rx="2.36389" ry="2.56646" transform="rotate(105.942 225.238 161.459)" fill="white"/>
<ellipse cx="187.806" cy="57.3452" rx="1.57593" ry="1.28323" transform="rotate(105.942 187.806 57.3452)" fill="white"/>
<ellipse cx="180.835" cy="45.9302" rx="1.18194" ry="1.71097" transform="rotate(105.942 180.835 45.9302)" fill="white"/>
<ellipse cx="193.265" cy="74.064" rx="1.18194" ry="1.71097" transform="rotate(105.942 193.265 74.064)" fill="white"/>
<ellipse cx="196.944" cy="61.1836" rx="1.18194" ry="1.71097" transform="rotate(105.942 196.944 61.1836)" fill="white"/>
<ellipse cx="183.393" cy="71.2442" rx="1.18194" ry="1.71097" transform="rotate(105.942 183.393 71.2442)" fill="white"/>
<ellipse cx="199.047" cy="89.6463" rx="1.18194" ry="1.28323" transform="rotate(105.942 199.047 89.6463)" fill="white"/>
<ellipse cx="184.238" cy="85.4163" rx="1.18194" ry="1.28323" transform="rotate(105.942 184.238 85.4163)" fill="white"/>
<ellipse cx="160.383" cy="78.6031" rx="1.18194" ry="1.28323" transform="rotate(105.942 160.383 78.6031)" fill="white"/>
<ellipse cx="165.359" cy="61.1766" rx="1.18194" ry="1.28323" transform="rotate(105.942 165.359 61.1766)" fill="white"/>
<ellipse cx="239.501" cy="113.087" rx="1.57593" ry="1.28323" transform="rotate(105.942 239.501 113.087)" fill="white"/>
<ellipse cx="232.534" cy="101.671" rx="1.18194" ry="1.71097" transform="rotate(105.942 232.534 101.671)" fill="white"/>
<ellipse cx="244.96" cy="129.805" rx="1.18194" ry="1.71097" transform="rotate(105.942 244.96 129.805)" fill="white"/>
<ellipse cx="248.64" cy="116.925" rx="1.18194" ry="1.71097" transform="rotate(105.942 248.64 116.925)" fill="white"/>
<ellipse cx="235.089" cy="126.985" rx="1.18194" ry="1.71097" transform="rotate(105.942 235.089 126.985)" fill="white"/>
<ellipse cx="250.738" cy="145.387" rx="1.18194" ry="1.28323" transform="rotate(105.942 250.738 145.387)" fill="white"/>
<ellipse cx="235.934" cy="141.158" rx="1.18194" ry="1.28323" transform="rotate(105.942 235.934 141.158)" fill="white"/>
<ellipse cx="212.078" cy="134.343" rx="1.18194" ry="1.28323" transform="rotate(105.942 212.078 134.343)" fill="white"/>
<ellipse cx="217.055" cy="116.917" rx="1.18194" ry="1.28323" transform="rotate(105.942 217.055 116.917)" fill="white"/>
<ellipse cx="309.212" cy="242.809" rx="1.57593" ry="1.28323" transform="rotate(105.942 309.212 242.809)" fill="white"/>
<ellipse cx="302.241" cy="231.394" rx="1.18194" ry="1.71097" transform="rotate(105.942 302.241 231.394)" fill="white"/>
<ellipse cx="314.667" cy="259.528" rx="1.18194" ry="1.71097" transform="rotate(105.942 314.667 259.528)" fill="white"/>
<ellipse cx="318.347" cy="246.648" rx="1.18194" ry="1.71097" transform="rotate(105.942 318.347 246.648)" fill="white"/>
<ellipse cx="304.796" cy="256.709" rx="1.18194" ry="1.71097" transform="rotate(105.942 304.796 256.709)" fill="white"/>
<ellipse cx="320.445" cy="275.111" rx="1.18194" ry="1.28323" transform="rotate(105.942 320.445 275.111)" fill="white"/>
<ellipse cx="305.641" cy="270.881" rx="1.18194" ry="1.28323" transform="rotate(105.942 305.641 270.881)" fill="white"/>
<ellipse cx="281.785" cy="264.067" rx="1.18194" ry="1.28323" transform="rotate(105.942 281.785 264.067)" fill="white"/>
<ellipse cx="286.766" cy="246.641" rx="1.18194" ry="1.28323" transform="rotate(105.942 286.766 246.641)" fill="white"/>
<ellipse cx="170.712" cy="148.341" rx="1.57593" ry="1.28323" transform="rotate(105.942 170.712 148.341)" fill="white"/>
<ellipse cx="163.741" cy="136.925" rx="1.18194" ry="1.71097" transform="rotate(105.942 163.741 136.925)" fill="white"/>
<ellipse cx="176.167" cy="165.059" rx="1.18194" ry="1.71097" transform="rotate(105.942 176.167 165.059)" fill="white"/>
<ellipse cx="179.847" cy="152.18" rx="1.18194" ry="1.71097" transform="rotate(105.942 179.847 152.18)" fill="white"/>
<ellipse cx="166.296" cy="162.24" rx="1.18194" ry="1.71097" transform="rotate(105.942 166.296 162.24)" fill="white"/>
<ellipse cx="181.949" cy="180.641" rx="1.18194" ry="1.28323" transform="rotate(105.942 181.949 180.641)" fill="white"/>
<ellipse cx="167.141" cy="176.412" rx="1.18194" ry="1.28323" transform="rotate(105.942 167.141 176.412)" fill="white"/>
<ellipse cx="143.285" cy="169.598" rx="1.18194" ry="1.28323" transform="rotate(105.942 143.285 169.598)" fill="white"/>
<ellipse cx="148.262" cy="152.172" rx="1.18194" ry="1.28323" transform="rotate(105.942 148.262 152.172)" fill="white"/>
<ellipse cx="239.118" cy="220.329" rx="1.57593" ry="1.28323" transform="rotate(105.942 239.118 220.329)" fill="white"/>
<ellipse cx="232.147" cy="208.914" rx="1.18194" ry="1.71097" transform="rotate(105.942 232.147 208.914)" fill="white"/>
<ellipse cx="244.573" cy="237.047" rx="1.18194" ry="1.71097" transform="rotate(105.942 244.573 237.047)" fill="white"/>
<ellipse cx="248.253" cy="224.167" rx="1.18194" ry="1.71097" transform="rotate(105.942 248.253 224.167)" fill="white"/>
<ellipse cx="234.706" cy="234.227" rx="1.18194" ry="1.71097" transform="rotate(105.942 234.706 234.227)" fill="white"/>
<ellipse cx="250.356" cy="252.63" rx="1.18194" ry="1.28323" transform="rotate(105.942 250.356 252.63)" fill="white"/>
<ellipse cx="235.547" cy="248.401" rx="1.18194" ry="1.28323" transform="rotate(105.942 235.547 248.401)" fill="white"/>
<ellipse cx="211.691" cy="241.586" rx="1.18194" ry="1.28323" transform="rotate(105.942 211.691 241.586)" fill="white"/>
<ellipse cx="216.672" cy="224.16" rx="1.18194" ry="1.28323" transform="rotate(105.942 216.672 224.16)" fill="white"/>
<ellipse cx="167.727" cy="146.574" rx="2.36389" ry="2.56646" transform="rotate(138.898 167.727 146.574)" fill="white"/>
<ellipse cx="168.356" cy="123.322" rx="2.36389" ry="2.56646" transform="rotate(138.898 168.356 123.322)" fill="white"/>
<ellipse cx="159.977" cy="176.044" rx="2.36389" ry="2.56646" transform="rotate(138.898 159.977 176.044)" fill="white"/>
<ellipse cx="177.789" cy="160.504" rx="2.36389" ry="2.56646" transform="rotate(138.898 177.789 160.504)" fill="white"/>
<ellipse cx="148.164" cy="162.506" rx="2.36389" ry="2.56646" transform="rotate(138.898 148.164 162.506)" fill="white"/>
<ellipse cx="153.414" cy="204.477" rx="2.36389" ry="2.56646" transform="rotate(138.898 153.414 204.477)" fill="white"/>
<ellipse cx="135.977" cy="184.494" rx="2.36389" ry="2.56646" transform="rotate(138.898 135.977 184.494)" fill="white"/>
<ellipse cx="107.293" cy="151.616" rx="2.36389" ry="2.56646" transform="rotate(138.898 107.293 151.616)" fill="white"/>
<ellipse cx="131.043" cy="130.895" rx="2.36389" ry="2.56646" transform="rotate(138.898 131.043 130.895)" fill="white"/>
<ellipse cx="156.274" cy="23.1723" rx="1.57593" ry="1.28323" transform="rotate(138.898 156.274 23.1723)" fill="white"/>
<ellipse cx="156.633" cy="9.80119" rx="1.18194" ry="1.71097" transform="rotate(138.898 156.633 9.80119)" fill="white"/>
<ellipse cx="151.758" cy="40.1689" rx="1.18194" ry="1.71097" transform="rotate(138.898 151.758 40.1689)" fill="white"/>
<ellipse cx="161.852" cy="31.3625" rx="1.18194" ry="1.71097" transform="rotate(138.898 161.852 31.3625)" fill="white"/>
<ellipse cx="145.008" cy="32.433" rx="1.18194" ry="1.71097" transform="rotate(138.898 145.008 32.433)" fill="white"/>
<ellipse cx="148.133" cy="56.3891" rx="1.18194" ry="1.28323" transform="rotate(138.898 148.133 56.3891)" fill="white"/>
<ellipse cx="138.008" cy="44.7849" rx="1.18194" ry="1.28323" transform="rotate(138.898 138.008 44.7849)" fill="white"/>
<ellipse cx="121.695" cy="26.0903" rx="1.18194" ry="1.28323" transform="rotate(138.898 121.695 26.0903)" fill="white"/>
<ellipse cx="135.356" cy="14.1758" rx="1.18194" ry="1.28323" transform="rotate(138.898 135.356 14.1758)" fill="white"/>
<ellipse cx="169.328" cy="98.0664" rx="1.57593" ry="1.28323" transform="rotate(138.898 169.328 98.0664)" fill="white"/>
<ellipse cx="169.688" cy="84.6955" rx="1.18194" ry="1.71097" transform="rotate(138.898 169.688 84.6955)" fill="white"/>
<ellipse cx="164.813" cy="115.063" rx="1.18194" ry="1.71097" transform="rotate(138.898 164.813 115.063)" fill="white"/>
<ellipse cx="174.906" cy="106.256" rx="1.18194" ry="1.71097" transform="rotate(138.898 174.906 106.256)" fill="white"/>
<ellipse cx="158.063" cy="107.327" rx="1.18194" ry="1.71097" transform="rotate(138.898 158.063 107.327)" fill="white"/>
<ellipse cx="161.184" cy="131.282" rx="1.18194" ry="1.28323" transform="rotate(138.898 161.184 131.282)" fill="white"/>
<ellipse cx="151.063" cy="119.678" rx="1.18194" ry="1.28323" transform="rotate(138.898 151.063 119.678)" fill="white"/>
<ellipse cx="134.75" cy="100.983" rx="1.18194" ry="1.28323" transform="rotate(138.898 134.75 100.983)" fill="white"/>
<ellipse cx="148.41" cy="89.0688" rx="1.18194" ry="1.28323" transform="rotate(138.898 148.41 89.0688)" fill="white"/>
<ellipse cx="157.25" cy="244.836" rx="1.57593" ry="1.28323" transform="rotate(138.898 157.25 244.836)" fill="white"/>
<ellipse cx="157.61" cy="231.465" rx="1.18194" ry="1.71097" transform="rotate(138.898 157.61 231.465)" fill="white"/>
<ellipse cx="152.735" cy="261.832" rx="1.18194" ry="1.71097" transform="rotate(138.898 152.735 261.832)" fill="white"/>
<ellipse cx="162.828" cy="253.027" rx="1.18194" ry="1.71097" transform="rotate(138.898 162.828 253.027)" fill="white"/>
<ellipse cx="145.985" cy="254.097" rx="1.18194" ry="1.71097" transform="rotate(138.898 145.985 254.097)" fill="white"/>
<ellipse cx="149.106" cy="278.052" rx="1.18194" ry="1.28323" transform="rotate(138.898 149.106 278.052)" fill="white"/>
<ellipse cx="138.985" cy="266.449" rx="1.18194" ry="1.28323" transform="rotate(138.898 138.985 266.449)" fill="white"/>
<ellipse cx="122.672" cy="247.753" rx="1.18194" ry="1.28323" transform="rotate(138.898 122.672 247.753)" fill="white"/>
<ellipse cx="136.332" cy="235.84" rx="1.18194" ry="1.28323" transform="rotate(138.898 136.332 235.84)" fill="white"/>
<ellipse cx="92.4259" cy="90.2255" rx="1.57593" ry="1.28323" transform="rotate(138.898 92.4259 90.2255)" fill="white"/>
<ellipse cx="92.7893" cy="76.8547" rx="1.18194" ry="1.71097" transform="rotate(138.898 92.7893 76.8547)" fill="white"/>
<ellipse cx="87.9103" cy="107.222" rx="1.18194" ry="1.71097" transform="rotate(138.898 87.9103 107.222)" fill="white"/>
<ellipse cx="98.0041" cy="98.4159" rx="1.18194" ry="1.71097" transform="rotate(138.898 98.0041 98.4159)" fill="white"/>
<ellipse cx="81.1603" cy="99.4863" rx="1.18194" ry="1.71097" transform="rotate(138.898 81.1603 99.4863)" fill="white"/>
<ellipse cx="84.2853" cy="123.441" rx="1.18194" ry="1.28323" transform="rotate(138.898 84.2853 123.441)" fill="white"/>
<ellipse cx="74.1603" cy="111.838" rx="1.18194" ry="1.28323" transform="rotate(138.898 74.1603 111.838)" fill="white"/>
<ellipse cx="57.8517" cy="93.1426" rx="1.18194" ry="1.28323" transform="rotate(138.898 57.8517 93.1426)" fill="white"/>
<ellipse cx="71.5079" cy="81.229" rx="1.18194" ry="1.28323" transform="rotate(138.898 71.5079 81.229)" fill="white"/>
<ellipse cx="110.664" cy="187.843" rx="1.57593" ry="1.28323" transform="rotate(138.898 110.664 187.843)" fill="white"/>
<ellipse cx="111.028" cy="174.473" rx="1.18194" ry="1.71097" transform="rotate(138.898 111.028 174.473)" fill="white"/>
<ellipse cx="106.149" cy="204.839" rx="1.18194" ry="1.71097" transform="rotate(138.898 106.149 204.839)" fill="white"/>
<ellipse cx="116.242" cy="196.032" rx="1.18194" ry="1.71097" transform="rotate(138.898 116.242 196.032)" fill="white"/>
<ellipse cx="99.4025" cy="197.104" rx="1.18194" ry="1.71097" transform="rotate(138.898 99.4025 197.104)" fill="white"/>
<ellipse cx="102.524" cy="221.059" rx="1.18194" ry="1.28323" transform="rotate(138.898 102.524 221.059)" fill="white"/>
<ellipse cx="92.3986" cy="209.455" rx="1.18194" ry="1.28323" transform="rotate(138.898 92.3986 209.455)" fill="white"/>
<ellipse cx="76.09" cy="190.76" rx="1.18194" ry="1.28323" transform="rotate(138.898 76.09 190.76)" fill="white"/>
<ellipse cx="89.7462" cy="178.846" rx="1.18194" ry="1.28323" transform="rotate(138.898 89.7462 178.846)" fill="white"/>
</svg>
