<svg width="436" height="1153" viewBox="0 0 436 1153" fill="none" xmlns="http://www.w3.org/2000/svg">
<circle cx="207.578" cy="181.65" r="3" fill="white"/>
<circle cx="187.578" cy="201.65" r="3" fill="white"/>
<circle cx="239.578" cy="161.65" r="3" fill="white"/>
<circle cx="209.578" cy="161.65" r="3" fill="white"/>
<circle cx="239.578" cy="182.65" r="3" fill="white"/>
<circle cx="269.578" cy="141.65" r="3" fill="white"/>
<circle cx="269.578" cy="172.65" r="3" fill="white"/>
<circle cx="269.578" cy="223.65" r="3" fill="white"/>
<circle cx="229.578" cy="223.65" r="3" fill="white"/>
<ellipse cx="115.578" cy="299.15" rx="2" ry="1.5" fill="white"/>
<ellipse cx="104.078" cy="310.65" rx="1.5" ry="2" fill="white"/>
<ellipse cx="134.078" cy="287.65" rx="1.5" ry="2" fill="white"/>
<ellipse cx="117.078" cy="287.65" rx="1.5" ry="2" fill="white"/>
<ellipse cx="134.078" cy="299.65" rx="1.5" ry="2" fill="white"/>
<circle cx="151.078" cy="276.15" r="1.5" fill="white"/>
<circle cx="151.078" cy="294.15" r="1.5" fill="white"/>
<circle cx="151.078" cy="323.15" r="1.5" fill="white"/>
<circle cx="128.078" cy="323.15" r="1.5" fill="white"/>
<ellipse cx="165.578" cy="223.15" rx="2" ry="1.5" fill="white"/>
<ellipse cx="154.078" cy="234.65" rx="1.5" ry="2" fill="white"/>
<ellipse cx="184.078" cy="211.65" rx="1.5" ry="2" fill="white"/>
<ellipse cx="167.078" cy="211.65" rx="1.5" ry="2" fill="white"/>
<ellipse cx="184.078" cy="223.65" rx="1.5" ry="2" fill="white"/>
<circle cx="201.078" cy="200.15" r="1.5" fill="white"/>
<circle cx="201.078" cy="218.15" r="1.5" fill="white"/>
<circle cx="201.078" cy="247.15" r="1.5" fill="white"/>
<circle cx="178.078" cy="247.15" r="1.5" fill="white"/>
<ellipse cx="299.578" cy="103.15" rx="2" ry="1.5" fill="white"/>
<ellipse cx="288.078" cy="114.65" rx="1.5" ry="2" fill="white"/>
<ellipse cx="318.078" cy="91.6497" rx="1.5" ry="2" fill="white"/>
<ellipse cx="301.078" cy="91.6497" rx="1.5" ry="2" fill="white"/>
<ellipse cx="318.078" cy="103.65" rx="1.5" ry="2" fill="white"/>
<circle cx="335.078" cy="80.1497" r="1.5" fill="white"/>
<circle cx="335.078" cy="98.1497" r="1.5" fill="white"/>
<circle cx="335.078" cy="127.15" r="1.5" fill="white"/>
<circle cx="312.078" cy="127.15" r="1.5" fill="white"/>
<ellipse cx="232.578" cy="289.15" rx="2" ry="1.5" fill="white"/>
<ellipse cx="221.078" cy="300.65" rx="1.5" ry="2" fill="white"/>
<ellipse cx="251.078" cy="277.65" rx="1.5" ry="2" fill="white"/>
<ellipse cx="234.078" cy="277.65" rx="1.5" ry="2" fill="white"/>
<ellipse cx="251.078" cy="289.65" rx="1.5" ry="2" fill="white"/>
<circle cx="268.078" cy="266.15" r="1.5" fill="white"/>
<circle cx="268.078" cy="284.15" r="1.5" fill="white"/>
<circle cx="268.078" cy="313.15" r="1.5" fill="white"/>
<circle cx="245.078" cy="313.15" r="1.5" fill="white"/>
<ellipse cx="296.578" cy="189.15" rx="2" ry="1.5" fill="white"/>
<ellipse cx="285.078" cy="200.65" rx="1.5" ry="2" fill="white"/>
<ellipse cx="315.078" cy="177.65" rx="1.5" ry="2" fill="white"/>
<ellipse cx="298.078" cy="177.65" rx="1.5" ry="2" fill="white"/>
<ellipse cx="315.078" cy="189.65" rx="1.5" ry="2" fill="white"/>
<circle cx="332.078" cy="166.15" r="1.5" fill="white"/>
<circle cx="332.078" cy="184.15" r="1.5" fill="white"/>
<circle cx="332.078" cy="213.15" r="1.5" fill="white"/>
<circle cx="309.078" cy="213.15" r="1.5" fill="white"/>
<ellipse cx="244.376" cy="162.405" rx="2.99317" ry="3.00616" transform="rotate(-41.1381 244.376 162.405)" fill="white"/>
<ellipse cx="242.533" cy="190.625" rx="2.99317" ry="3.00616" transform="rotate(-41.1381 242.533 190.625)" fill="white"/>
<ellipse cx="255.236" cy="126.307" rx="2.99317" ry="3.00616" transform="rotate(-41.1381 255.236 126.307)" fill="white"/>
<ellipse cx="232.693" cy="145.998" rx="2.99317" ry="3.00616" transform="rotate(-41.1381 232.693 145.998)" fill="white"/>
<ellipse cx="269.08" cy="142.155" rx="2.99317" ry="3.00616" transform="rotate(-41.1381 269.08 142.155)" fill="white"/>
<ellipse cx="264.595" cy="91.5219" rx="2.99317" ry="3.00616" transform="rotate(-41.1381 264.595 91.5219)" fill="white"/>
<ellipse cx="285.029" cy="114.916" rx="2.99317" ry="3.00616" transform="rotate(-41.1381 285.029 114.916)" fill="white"/>
<ellipse cx="318.65" cy="153.405" rx="2.99317" ry="3.00616" transform="rotate(-41.1381 318.65 153.405)" fill="white"/>
<ellipse cx="288.595" cy="179.66" rx="2.99317" ry="3.00616" transform="rotate(-41.1381 288.595 179.66)" fill="white"/>
<ellipse cx="252.707" cy="311.465" rx="1.99544" ry="1.50308" transform="rotate(-41.1381 252.707 311.465)" fill="white"/>
<ellipse cx="251.645" cy="327.692" rx="1.49658" ry="2.00411" transform="rotate(-41.1381 251.645 327.692)" fill="white"/>
<ellipse cx="259.024" cy="290.643" rx="1.49658" ry="2.00411" transform="rotate(-41.1381 259.024 290.643)" fill="white"/>
<ellipse cx="246.25" cy="301.802" rx="1.49658" ry="2.00411" transform="rotate(-41.1381 246.25 301.802)" fill="white"/>
<ellipse cx="266.934" cy="299.699" rx="1.49658" ry="2.00411" transform="rotate(-41.1381 266.934 299.699)" fill="white"/>
<ellipse cx="264.218" cy="270.806" rx="1.49658" ry="1.50308" transform="rotate(-41.1381 264.218 270.806)" fill="white"/>
<ellipse cx="276.085" cy="284.39" rx="1.49658" ry="1.50308" transform="rotate(-41.1381 276.085 284.39)" fill="white"/>
<ellipse cx="295.202" cy="306.276" rx="1.49658" ry="1.50308" transform="rotate(-41.1381 295.202 306.276)" fill="white"/>
<ellipse cx="277.921" cy="321.373" rx="1.49658" ry="1.50308" transform="rotate(-41.1381 277.921 321.373)" fill="white"/>
<ellipse cx="240.175" cy="221.291" rx="1.99544" ry="1.50308" transform="rotate(-41.1381 240.175 221.291)" fill="white"/>
<ellipse cx="239.114" cy="237.518" rx="1.49658" ry="2.00411" transform="rotate(-41.1381 239.114 237.518)" fill="white"/>
<ellipse cx="246.492" cy="200.469" rx="1.49658" ry="2.00411" transform="rotate(-41.1381 246.492 200.469)" fill="white"/>
<ellipse cx="233.719" cy="211.628" rx="1.49658" ry="2.00411" transform="rotate(-41.1381 233.719 211.628)" fill="white"/>
<ellipse cx="254.407" cy="209.525" rx="1.49658" ry="2.00411" transform="rotate(-41.1381 254.407 209.525)" fill="white"/>
<ellipse cx="251.686" cy="180.632" rx="1.49658" ry="1.50308" transform="rotate(-41.1381 251.686 180.632)" fill="white"/>
<ellipse cx="263.553" cy="194.216" rx="1.49658" ry="1.50308" transform="rotate(-41.1381 263.553 194.216)" fill="white"/>
<ellipse cx="282.671" cy="216.102" rx="1.49658" ry="1.50308" transform="rotate(-41.1381 282.671 216.102)" fill="white"/>
<ellipse cx="265.389" cy="231.198" rx="1.49658" ry="1.50308" transform="rotate(-41.1381 265.389 231.198)" fill="white"/>
<ellipse cx="261.757" cy="42.7758" rx="1.99544" ry="1.50308" transform="rotate(-41.1381 261.757 42.7758)" fill="white"/>
<ellipse cx="260.696" cy="59.0028" rx="1.49658" ry="2.00411" transform="rotate(-41.1381 260.696 59.0028)" fill="white"/>
<ellipse cx="268.078" cy="21.954" rx="1.49658" ry="2.00411" transform="rotate(-41.1381 268.078 21.954)" fill="white"/>
<ellipse cx="255.301" cy="33.1122" rx="1.49658" ry="2.00411" transform="rotate(-41.1381 255.301 33.1122)" fill="white"/>
<ellipse cx="275.989" cy="31.0101" rx="1.49658" ry="2.00411" transform="rotate(-41.1381 275.989 31.0101)" fill="white"/>
<ellipse cx="273.268" cy="2.11693" rx="1.49658" ry="1.50308" transform="rotate(-41.1381 273.268 2.11693)" fill="white"/>
<ellipse cx="285.135" cy="15.7009" rx="1.49658" ry="1.50308" transform="rotate(-41.1381 285.135 15.7009)" fill="white"/>
<ellipse cx="304.253" cy="37.5867" rx="1.49658" ry="1.50308" transform="rotate(-41.1381 304.253 37.5867)" fill="white"/>
<ellipse cx="286.971" cy="52.6831" rx="1.49658" ry="1.50308" transform="rotate(-41.1381 286.971 52.6831)" fill="white"/>
<ellipse cx="334.027" cy="227.122" rx="1.99544" ry="1.50308" transform="rotate(-41.1381 334.027 227.122)" fill="white"/>
<ellipse cx="332.969" cy="243.349" rx="1.49658" ry="2.00411" transform="rotate(-41.1381 332.969 243.349)" fill="white"/>
<ellipse cx="340.348" cy="206.3" rx="1.49658" ry="2.00411" transform="rotate(-41.1381 340.348 206.3)" fill="white"/>
<ellipse cx="327.574" cy="217.459" rx="1.49658" ry="2.00411" transform="rotate(-41.1381 327.574 217.459)" fill="white"/>
<ellipse cx="348.258" cy="215.356" rx="1.49658" ry="2.00411" transform="rotate(-41.1381 348.258 215.356)" fill="white"/>
<ellipse cx="345.542" cy="186.463" rx="1.49658" ry="1.50308" transform="rotate(-41.1381 345.542 186.463)" fill="white"/>
<ellipse cx="357.405" cy="200.047" rx="1.49658" ry="1.50308" transform="rotate(-41.1381 357.405 200.047)" fill="white"/>
<ellipse cx="376.522" cy="221.933" rx="1.49658" ry="1.50308" transform="rotate(-41.1381 376.522 221.933)" fill="white"/>
<ellipse cx="359.241" cy="237.03" rx="1.49658" ry="1.50308" transform="rotate(-41.1381 359.241 237.03)" fill="white"/>
<ellipse cx="316.195" cy="109.646" rx="1.99544" ry="1.50308" transform="rotate(-41.1381 316.195 109.646)" fill="white"/>
<ellipse cx="315.137" cy="125.873" rx="1.49658" ry="2.00411" transform="rotate(-41.1381 315.137 125.873)" fill="white"/>
<ellipse cx="322.516" cy="88.8248" rx="1.49658" ry="2.00411" transform="rotate(-41.1381 322.516 88.8248)" fill="white"/>
<ellipse cx="309.742" cy="99.9833" rx="1.49658" ry="2.00411" transform="rotate(-41.1381 309.742 99.9833)" fill="white"/>
<ellipse cx="330.426" cy="97.881" rx="1.49658" ry="2.00411" transform="rotate(-41.1381 330.426 97.881)" fill="white"/>
<ellipse cx="327.71" cy="68.9875" rx="1.49658" ry="1.50308" transform="rotate(-41.1381 327.71 68.9875)" fill="white"/>
<ellipse cx="339.577" cy="82.5715" rx="1.49658" ry="1.50308" transform="rotate(-41.1381 339.577 82.5715)" fill="white"/>
<ellipse cx="358.694" cy="104.457" rx="1.49658" ry="1.50308" transform="rotate(-41.1381 358.694 104.457)" fill="white"/>
<ellipse cx="341.409" cy="119.554" rx="1.49658" ry="1.50308" transform="rotate(-41.1381 341.409 119.554)" fill="white"/>
<ellipse cx="170.376" cy="439.054" rx="2.99317" ry="3.00616" transform="rotate(-41.1381 170.376 439.054)" fill="white"/>
<ellipse cx="168.533" cy="467.275" rx="2.99317" ry="3.00616" transform="rotate(-41.1381 168.533 467.275)" fill="white"/>
<ellipse cx="181.236" cy="402.957" rx="2.99317" ry="3.00616" transform="rotate(-41.1381 181.236 402.957)" fill="white"/>
<ellipse cx="158.693" cy="422.648" rx="2.99317" ry="3.00616" transform="rotate(-41.1381 158.693 422.648)" fill="white"/>
<ellipse cx="195.08" cy="418.804" rx="2.99317" ry="3.00616" transform="rotate(-41.1381 195.08 418.804)" fill="white"/>
<ellipse cx="190.595" cy="368.172" rx="2.99317" ry="3.00616" transform="rotate(-41.1381 190.595 368.172)" fill="white"/>
<ellipse cx="211.029" cy="391.566" rx="2.99317" ry="3.00616" transform="rotate(-41.1381 211.029 391.566)" fill="white"/>
<ellipse cx="244.65" cy="430.055" rx="2.99317" ry="3.00616" transform="rotate(-41.1381 244.65 430.055)" fill="white"/>
<ellipse cx="214.595" cy="456.31" rx="2.99317" ry="3.00616" transform="rotate(-41.1381 214.595 456.31)" fill="white"/>
<ellipse cx="178.707" cy="588.115" rx="1.99544" ry="1.50308" transform="rotate(-41.1381 178.707 588.115)" fill="white"/>
<ellipse cx="177.645" cy="604.342" rx="1.49658" ry="2.00411" transform="rotate(-41.1381 177.645 604.342)" fill="white"/>
<ellipse cx="185.024" cy="567.293" rx="1.49658" ry="2.00411" transform="rotate(-41.1381 185.024 567.293)" fill="white"/>
<ellipse cx="172.25" cy="578.452" rx="1.49658" ry="2.00411" transform="rotate(-41.1381 172.25 578.452)" fill="white"/>
<ellipse cx="192.934" cy="576.349" rx="1.49658" ry="2.00411" transform="rotate(-41.1381 192.934 576.349)" fill="white"/>
<ellipse cx="190.218" cy="547.456" rx="1.49658" ry="1.50308" transform="rotate(-41.1381 190.218 547.456)" fill="white"/>
<ellipse cx="202.085" cy="561.04" rx="1.49658" ry="1.50308" transform="rotate(-41.1381 202.085 561.04)" fill="white"/>
<ellipse cx="221.202" cy="582.925" rx="1.49658" ry="1.50308" transform="rotate(-41.1381 221.202 582.925)" fill="white"/>
<ellipse cx="203.921" cy="598.022" rx="1.49658" ry="1.50308" transform="rotate(-41.1381 203.921 598.022)" fill="white"/>
<ellipse cx="166.175" cy="497.94" rx="1.99544" ry="1.50308" transform="rotate(-41.1381 166.175 497.94)" fill="white"/>
<ellipse cx="165.114" cy="514.167" rx="1.49658" ry="2.00411" transform="rotate(-41.1381 165.114 514.167)" fill="white"/>
<ellipse cx="172.492" cy="477.119" rx="1.49658" ry="2.00411" transform="rotate(-41.1381 172.492 477.119)" fill="white"/>
<ellipse cx="159.719" cy="488.277" rx="1.49658" ry="2.00411" transform="rotate(-41.1381 159.719 488.277)" fill="white"/>
<ellipse cx="180.407" cy="486.175" rx="1.49658" ry="2.00411" transform="rotate(-41.1381 180.407 486.175)" fill="white"/>
<ellipse cx="177.686" cy="457.282" rx="1.49658" ry="1.50308" transform="rotate(-41.1381 177.686 457.282)" fill="white"/>
<ellipse cx="189.553" cy="470.866" rx="1.49658" ry="1.50308" transform="rotate(-41.1381 189.553 470.866)" fill="white"/>
<ellipse cx="208.671" cy="492.751" rx="1.49658" ry="1.50308" transform="rotate(-41.1381 208.671 492.751)" fill="white"/>
<ellipse cx="191.389" cy="507.848" rx="1.49658" ry="1.50308" transform="rotate(-41.1381 191.389 507.848)" fill="white"/>
<ellipse cx="187.757" cy="319.425" rx="1.99544" ry="1.50308" transform="rotate(-41.1381 187.757 319.425)" fill="white"/>
<ellipse cx="186.696" cy="335.652" rx="1.49658" ry="2.00411" transform="rotate(-41.1381 186.696 335.652)" fill="white"/>
<ellipse cx="194.078" cy="298.604" rx="1.49658" ry="2.00411" transform="rotate(-41.1381 194.078 298.604)" fill="white"/>
<ellipse cx="181.301" cy="309.762" rx="1.49658" ry="2.00411" transform="rotate(-41.1381 181.301 309.762)" fill="white"/>
<ellipse cx="201.989" cy="307.66" rx="1.49658" ry="2.00411" transform="rotate(-41.1381 201.989 307.66)" fill="white"/>
<ellipse cx="199.268" cy="278.767" rx="1.49658" ry="1.50308" transform="rotate(-41.1381 199.268 278.767)" fill="white"/>
<ellipse cx="211.135" cy="292.351" rx="1.49658" ry="1.50308" transform="rotate(-41.1381 211.135 292.351)" fill="white"/>
<ellipse cx="230.253" cy="314.236" rx="1.49658" ry="1.50308" transform="rotate(-41.1381 230.253 314.236)" fill="white"/>
<ellipse cx="212.971" cy="329.333" rx="1.49658" ry="1.50308" transform="rotate(-41.1381 212.971 329.333)" fill="white"/>
<ellipse cx="260.027" cy="503.772" rx="1.99544" ry="1.50308" transform="rotate(-41.1381 260.027 503.772)" fill="white"/>
<ellipse cx="258.969" cy="519.999" rx="1.49658" ry="2.00411" transform="rotate(-41.1381 258.969 519.999)" fill="white"/>
<ellipse cx="266.348" cy="482.95" rx="1.49658" ry="2.00411" transform="rotate(-41.1381 266.348 482.95)" fill="white"/>
<ellipse cx="253.574" cy="494.108" rx="1.49658" ry="2.00411" transform="rotate(-41.1381 253.574 494.108)" fill="white"/>
<ellipse cx="274.258" cy="492.006" rx="1.49658" ry="2.00411" transform="rotate(-41.1381 274.258 492.006)" fill="white"/>
<ellipse cx="271.542" cy="463.113" rx="1.49658" ry="1.50308" transform="rotate(-41.1381 271.542 463.113)" fill="white"/>
<ellipse cx="283.405" cy="476.697" rx="1.49658" ry="1.50308" transform="rotate(-41.1381 283.405 476.697)" fill="white"/>
<ellipse cx="302.522" cy="498.582" rx="1.49658" ry="1.50308" transform="rotate(-41.1381 302.522 498.582)" fill="white"/>
<ellipse cx="285.241" cy="513.679" rx="1.49658" ry="1.50308" transform="rotate(-41.1381 285.241 513.679)" fill="white"/>
<ellipse cx="242.195" cy="386.296" rx="1.99544" ry="1.50308" transform="rotate(-41.1381 242.195 386.296)" fill="white"/>
<ellipse cx="241.137" cy="402.523" rx="1.49658" ry="2.00411" transform="rotate(-41.1381 241.137 402.523)" fill="white"/>
<ellipse cx="248.516" cy="365.474" rx="1.49658" ry="2.00411" transform="rotate(-41.1381 248.516 365.474)" fill="white"/>
<ellipse cx="235.742" cy="376.633" rx="1.49658" ry="2.00411" transform="rotate(-41.1381 235.742 376.633)" fill="white"/>
<ellipse cx="256.426" cy="374.531" rx="1.49658" ry="2.00411" transform="rotate(-41.1381 256.426 374.531)" fill="white"/>
<ellipse cx="253.71" cy="345.637" rx="1.49658" ry="1.50308" transform="rotate(-41.1381 253.71 345.637)" fill="white"/>
<ellipse cx="265.577" cy="359.221" rx="1.49658" ry="1.50308" transform="rotate(-41.1381 265.577 359.221)" fill="white"/>
<ellipse cx="284.694" cy="381.107" rx="1.49658" ry="1.50308" transform="rotate(-41.1381 284.694 381.107)" fill="white"/>
<ellipse cx="267.409" cy="396.204" rx="1.49658" ry="1.50308" transform="rotate(-41.1381 267.409 396.204)" fill="white"/>
<ellipse cx="113.982" cy="526.064" rx="2.16719" ry="2.1766" transform="rotate(-52.7237 113.982 526.064)" fill="white"/>
<ellipse cx="116.779" cy="546.349" rx="2.16719" ry="2.1766" transform="rotate(-52.7237 116.779 546.349)" fill="white"/>
<ellipse cx="116.435" cy="498.881" rx="2.16719" ry="2.1766" transform="rotate(-52.7237 116.435 498.881)" fill="white"/>
<ellipse cx="103.31" cy="516.126" rx="2.16719" ry="2.1766" transform="rotate(-52.7237 103.31 516.126)" fill="white"/>
<ellipse cx="128.56" cy="508.108" rx="2.16719" ry="2.1766" transform="rotate(-52.7237 128.56 508.108)" fill="white"/>
<ellipse cx="118.013" cy="472.847" rx="2.16719" ry="2.1766" transform="rotate(-52.7237 118.013 472.847)" fill="white"/>
<ellipse cx="135.912" cy="486.469" rx="2.16719" ry="2.1766" transform="rotate(-52.7237 135.912 486.469)" fill="white"/>
<ellipse cx="165.357" cy="508.88" rx="2.16719" ry="2.1766" transform="rotate(-52.7237 165.357 508.88)" fill="white"/>
<ellipse cx="147.857" cy="531.873" rx="2.16719" ry="2.1766" transform="rotate(-52.7237 147.857 531.873)" fill="white"/>
<ellipse cx="141.565" cy="630.58" rx="1.44479" ry="1.0883" transform="rotate(-52.7237 141.565 630.58)" fill="white"/>
<ellipse cx="143.174" cy="642.244" rx="1.08359" ry="1.45106" transform="rotate(-52.7237 143.174 642.244)" fill="white"/>
<ellipse cx="143.018" cy="614.893" rx="1.08359" ry="1.45106" transform="rotate(-52.7237 143.018 614.893)" fill="white"/>
<ellipse cx="135.58" cy="624.665" rx="1.08359" ry="1.45106" transform="rotate(-52.7237 135.58 624.665)" fill="white"/>
<ellipse cx="149.948" cy="620.166" rx="1.08359" ry="1.45106" transform="rotate(-52.7237 149.948 620.166)" fill="white"/>
<ellipse cx="143.819" cy="600.067" rx="1.08359" ry="1.0883" transform="rotate(-52.7237 143.819 600.067)" fill="white"/>
<ellipse cx="154.21" cy="607.977" rx="1.08359" ry="1.0883" transform="rotate(-52.7237 154.21 607.977)" fill="white"/>
<ellipse cx="170.952" cy="620.72" rx="1.08359" ry="1.0883" transform="rotate(-52.7237 170.952 620.72)" fill="white"/>
<ellipse cx="160.889" cy="633.941" rx="1.08359" ry="1.0883" transform="rotate(-52.7237 160.889 633.941)" fill="white"/>
<ellipse cx="119.565" cy="568.442" rx="1.44479" ry="1.0883" transform="rotate(-52.7237 119.565 568.442)" fill="white"/>
<ellipse cx="121.17" cy="580.106" rx="1.08359" ry="1.45106" transform="rotate(-52.7237 121.17 580.106)" fill="white"/>
<ellipse cx="121.018" cy="552.755" rx="1.08359" ry="1.45106" transform="rotate(-52.7237 121.018 552.755)" fill="white"/>
<ellipse cx="113.58" cy="562.527" rx="1.08359" ry="1.45106" transform="rotate(-52.7237 113.58 562.527)" fill="white"/>
<ellipse cx="127.948" cy="558.028" rx="1.08359" ry="1.45106" transform="rotate(-52.7237 127.948 558.028)" fill="white"/>
<ellipse cx="121.819" cy="537.93" rx="1.08359" ry="1.0883" transform="rotate(-52.7237 121.819 537.93)" fill="white"/>
<ellipse cx="132.21" cy="545.839" rx="1.08359" ry="1.0883" transform="rotate(-52.7237 132.21 545.839)" fill="white"/>
<ellipse cx="148.952" cy="558.583" rx="1.08359" ry="1.0883" transform="rotate(-52.7237 148.952 558.583)" fill="white"/>
<ellipse cx="138.889" cy="571.804" rx="1.08359" ry="1.0883" transform="rotate(-52.7237 138.889 571.804)" fill="white"/>
<ellipse cx="108.913" cy="438.685" rx="1.44479" ry="1.0883" transform="rotate(-52.7237 108.913 438.685)" fill="white"/>
<ellipse cx="110.522" cy="450.348" rx="1.08359" ry="1.45106" transform="rotate(-52.7237 110.522 450.348)" fill="white"/>
<ellipse cx="110.37" cy="422.997" rx="1.08359" ry="1.45106" transform="rotate(-52.7237 110.37 422.997)" fill="white"/>
<ellipse cx="102.932" cy="432.769" rx="1.08359" ry="1.45106" transform="rotate(-52.7237 102.932 432.769)" fill="white"/>
<ellipse cx="117.299" cy="428.27" rx="1.08359" ry="1.45106" transform="rotate(-52.7237 117.299 428.27)" fill="white"/>
<ellipse cx="111.171" cy="408.171" rx="1.08359" ry="1.0883" transform="rotate(-52.7237 111.171 408.171)" fill="white"/>
<ellipse cx="121.561" cy="416.081" rx="1.08359" ry="1.0883" transform="rotate(-52.7237 121.561 416.081)" fill="white"/>
<ellipse cx="138.304" cy="428.825" rx="1.08359" ry="1.0883" transform="rotate(-52.7237 138.304 428.825)" fill="white"/>
<ellipse cx="128.237" cy="442.045" rx="1.08359" ry="1.0883" transform="rotate(-52.7237 128.237 442.045)" fill="white"/>
<ellipse cx="186.983" cy="558.931" rx="1.44479" ry="1.0883" transform="rotate(-52.7237 186.983 558.931)" fill="white"/>
<ellipse cx="188.588" cy="570.595" rx="1.08359" ry="1.45106" transform="rotate(-52.7237 188.588 570.595)" fill="white"/>
<ellipse cx="188.436" cy="543.244" rx="1.08359" ry="1.45106" transform="rotate(-52.7237 188.436 543.244)" fill="white"/>
<ellipse cx="180.998" cy="553.016" rx="1.08359" ry="1.45106" transform="rotate(-52.7237 180.998 553.016)" fill="white"/>
<ellipse cx="195.366" cy="548.517" rx="1.08359" ry="1.45106" transform="rotate(-52.7237 195.366 548.517)" fill="white"/>
<ellipse cx="189.233" cy="528.418" rx="1.08359" ry="1.0883" transform="rotate(-52.7237 189.233 528.418)" fill="white"/>
<ellipse cx="199.628" cy="536.328" rx="1.08359" ry="1.0883" transform="rotate(-52.7237 199.628 536.328)" fill="white"/>
<ellipse cx="216.37" cy="549.071" rx="1.08359" ry="1.0883" transform="rotate(-52.7237 216.37 549.071)" fill="white"/>
<ellipse cx="206.307" cy="562.292" rx="1.08359" ry="1.0883" transform="rotate(-52.7237 206.307 562.292)" fill="white"/>
<ellipse cx="157.253" cy="478.2" rx="1.44479" ry="1.0883" transform="rotate(-52.7237 157.253 478.2)" fill="white"/>
<ellipse cx="158.862" cy="489.863" rx="1.08359" ry="1.45106" transform="rotate(-52.7237 158.862 489.863)" fill="white"/>
<ellipse cx="158.705" cy="462.512" rx="1.08359" ry="1.45106" transform="rotate(-52.7237 158.705 462.512)" fill="white"/>
<ellipse cx="151.268" cy="472.284" rx="1.08359" ry="1.45106" transform="rotate(-52.7237 151.268 472.284)" fill="white"/>
<ellipse cx="165.635" cy="467.785" rx="1.08359" ry="1.45106" transform="rotate(-52.7237 165.635 467.785)" fill="white"/>
<ellipse cx="159.507" cy="447.686" rx="1.08359" ry="1.0883" transform="rotate(-52.7237 159.507 447.686)" fill="white"/>
<ellipse cx="169.897" cy="455.596" rx="1.08359" ry="1.0883" transform="rotate(-52.7237 169.897 455.596)" fill="white"/>
<ellipse cx="186.639" cy="468.339" rx="1.08359" ry="1.0883" transform="rotate(-52.7237 186.639 468.339)" fill="white"/>
<ellipse cx="176.577" cy="481.561" rx="1.08359" ry="1.0883" transform="rotate(-52.7237 176.577 481.561)" fill="white"/>
<ellipse cx="128.017" cy="723.278" rx="2.99317" ry="3.00616" transform="rotate(-74.0577 128.017 723.278)" fill="white"/>
<ellipse cx="141.806" cy="747.97" rx="2.99317" ry="3.00616" transform="rotate(-74.0577 141.806 747.97)" fill="white"/>
<ellipse cx="117.513" cy="687.075" rx="2.99317" ry="3.00616" transform="rotate(-74.0577 117.513 687.075)" fill="white"/>
<ellipse cx="109.295" cy="715.855" rx="2.99317" ry="3.00616" transform="rotate(-74.0577 109.295 715.855)" fill="white"/>
<ellipse cx="137.748" cy="692.854" rx="2.99317" ry="3.00616" transform="rotate(-74.0577 137.748 692.854)" fill="white"/>
<ellipse cx="106.467" cy="652.79" rx="2.99317" ry="3.00616" transform="rotate(-74.0577 106.467 652.79)" fill="white"/>
<ellipse cx="136.334" cy="661.322" rx="2.99317" ry="3.00616" transform="rotate(-74.0577 136.334 661.322)" fill="white"/>
<ellipse cx="185.474" cy="675.358" rx="2.99317" ry="3.00616" transform="rotate(-74.0577 185.474 675.358)" fill="white"/>
<ellipse cx="174.513" cy="713.732" rx="2.99317" ry="3.00616" transform="rotate(-74.0577 174.513 713.732)" fill="white"/>
<ellipse cx="216.017" cy="843.878" rx="1.99544" ry="1.50308" transform="rotate(-74.0577 216.017 843.878)" fill="white"/>
<ellipse cx="223.947" cy="858.076" rx="1.49658" ry="2.00411" transform="rotate(-74.0577 223.947 858.076)" fill="white"/>
<ellipse cx="210.006" cy="822.965" rx="1.49658" ry="2.00411" transform="rotate(-74.0577 210.006 822.965)" fill="white"/>
<ellipse cx="205.346" cy="839.275" rx="1.49658" ry="2.00411" transform="rotate(-74.0577 205.346 839.275)" fill="white"/>
<ellipse cx="221.569" cy="826.268" rx="1.49658" ry="2.00411" transform="rotate(-74.0577 221.569 826.268)" fill="white"/>
<ellipse cx="203.583" cy="803.491" rx="1.49658" ry="1.50308" transform="rotate(-74.0577 203.583 803.491)" fill="white"/>
<ellipse cx="220.927" cy="808.446" rx="1.49658" ry="1.50308" transform="rotate(-74.0577 220.927 808.446)" fill="white"/>
<ellipse cx="248.872" cy="816.426" rx="1.49658" ry="1.50308" transform="rotate(-74.0577 248.872 816.426)" fill="white"/>
<ellipse cx="242.567" cy="838.492" rx="1.49658" ry="1.50308" transform="rotate(-74.0577 242.567 838.492)" fill="white"/>
<ellipse cx="156.493" cy="774.993" rx="1.99544" ry="1.50308" transform="rotate(-74.0577 156.493 774.993)" fill="white"/>
<ellipse cx="164.42" cy="789.191" rx="1.49658" ry="2.00411" transform="rotate(-74.0577 164.42 789.191)" fill="white"/>
<ellipse cx="150.483" cy="754.08" rx="1.49658" ry="2.00411" transform="rotate(-74.0577 150.483 754.08)" fill="white"/>
<ellipse cx="145.822" cy="770.389" rx="1.49658" ry="2.00411" transform="rotate(-74.0577 145.822 770.389)" fill="white"/>
<ellipse cx="162.045" cy="757.383" rx="1.49658" ry="2.00411" transform="rotate(-74.0577 162.045 757.383)" fill="white"/>
<ellipse cx="144.059" cy="734.606" rx="1.49658" ry="1.50308" transform="rotate(-74.0577 144.059 734.606)" fill="white"/>
<ellipse cx="161.403" cy="739.56" rx="1.49658" ry="1.50308" transform="rotate(-74.0577 161.403 739.56)" fill="white"/>
<ellipse cx="189.345" cy="747.542" rx="1.49658" ry="1.50308" transform="rotate(-74.0577 189.345 747.542)" fill="white"/>
<ellipse cx="183.04" cy="769.608" rx="1.49658" ry="1.50308" transform="rotate(-74.0577 183.04 769.608)" fill="white"/>
<ellipse cx="77.591" cy="613.413" rx="1.99544" ry="1.50308" transform="rotate(-74.0577 77.591 613.413)" fill="white"/>
<ellipse cx="85.5217" cy="627.61" rx="1.49658" ry="2.00411" transform="rotate(-74.0577 85.5217 627.61)" fill="white"/>
<ellipse cx="71.5803" cy="592.499" rx="1.49658" ry="2.00411" transform="rotate(-74.0577 71.5803 592.499)" fill="white"/>
<ellipse cx="66.9201" cy="608.809" rx="1.49658" ry="2.00411" transform="rotate(-74.0577 66.9201 608.809)" fill="white"/>
<ellipse cx="83.1428" cy="595.802" rx="1.49658" ry="2.00411" transform="rotate(-74.0577 83.1428 595.802)" fill="white"/>
<ellipse cx="65.161" cy="573.025" rx="1.49658" ry="1.50308" transform="rotate(-74.0577 65.161 573.025)" fill="white"/>
<ellipse cx="82.5048" cy="577.979" rx="1.49658" ry="1.50308" transform="rotate(-74.0577 82.5048 577.979)" fill="white"/>
<ellipse cx="110.446" cy="585.961" rx="1.49658" ry="1.50308" transform="rotate(-74.0577 110.446 585.961)" fill="white"/>
<ellipse cx="104.141" cy="608.026" rx="1.49658" ry="1.50308" transform="rotate(-74.0577 104.141 608.026)" fill="white"/>
<ellipse cx="238.446" cy="728.882" rx="1.99544" ry="1.50308" transform="rotate(-74.0577 238.446 728.882)" fill="white"/>
<ellipse cx="246.373" cy="743.081" rx="1.49658" ry="2.00411" transform="rotate(-74.0577 246.373 743.081)" fill="white"/>
<ellipse cx="232.432" cy="707.97" rx="1.49658" ry="2.00411" transform="rotate(-74.0577 232.432 707.97)" fill="white"/>
<ellipse cx="227.776" cy="724.278" rx="1.49658" ry="2.00411" transform="rotate(-74.0577 227.776 724.278)" fill="white"/>
<ellipse cx="243.994" cy="711.272" rx="1.49658" ry="2.00411" transform="rotate(-74.0577 243.994 711.272)" fill="white"/>
<ellipse cx="226.013" cy="688.496" rx="1.49658" ry="1.50308" transform="rotate(-74.0577 226.013 688.496)" fill="white"/>
<ellipse cx="243.356" cy="693.45" rx="1.49658" ry="1.50308" transform="rotate(-74.0577 243.356 693.45)" fill="white"/>
<ellipse cx="271.298" cy="701.432" rx="1.49658" ry="1.50308" transform="rotate(-74.0577 271.298 701.432)" fill="white"/>
<ellipse cx="264.993" cy="723.496" rx="1.49658" ry="1.50308" transform="rotate(-74.0577 264.993 723.496)" fill="white"/>
<ellipse cx="159.63" cy="639.96" rx="1.99544" ry="1.50308" transform="rotate(-74.0577 159.63 639.96)" fill="white"/>
<ellipse cx="167.561" cy="654.158" rx="1.49658" ry="2.00411" transform="rotate(-74.0577 167.561 654.158)" fill="white"/>
<ellipse cx="153.619" cy="619.048" rx="1.49658" ry="2.00411" transform="rotate(-74.0577 153.619 619.048)" fill="white"/>
<ellipse cx="148.963" cy="635.357" rx="1.49658" ry="2.00411" transform="rotate(-74.0577 148.963 635.357)" fill="white"/>
<ellipse cx="165.182" cy="622.351" rx="1.49658" ry="2.00411" transform="rotate(-74.0577 165.182 622.351)" fill="white"/>
<ellipse cx="147.2" cy="599.573" rx="1.49658" ry="1.50308" transform="rotate(-74.0577 147.2 599.573)" fill="white"/>
<ellipse cx="164.544" cy="604.527" rx="1.49658" ry="1.50308" transform="rotate(-74.0577 164.544 604.527)" fill="white"/>
<ellipse cx="192.485" cy="612.509" rx="1.49658" ry="1.50308" transform="rotate(-74.0577 192.485 612.509)" fill="white"/>
<ellipse cx="186.181" cy="634.574" rx="1.49658" ry="1.50308" transform="rotate(-74.0577 186.181 634.574)" fill="white"/>
<ellipse cx="171.031" cy="997.786" rx="2.36389" ry="2.56646" transform="rotate(-74.0577 171.031 997.786)" fill="white"/>
<ellipse cx="183.152" cy="1017.64" rx="2.36389" ry="2.56646" transform="rotate(-74.0577 183.152 1017.64)" fill="white"/>
<ellipse cx="161.504" cy="968.842" rx="2.36389" ry="2.56646" transform="rotate(-74.0577 161.504 968.842)" fill="white"/>
<ellipse cx="155.008" cy="991.572" rx="2.36389" ry="2.56646" transform="rotate(-74.0577 155.008 991.572)" fill="white"/>
<ellipse cx="178.777" cy="973.776" rx="2.36389" ry="2.56646" transform="rotate(-74.0577 178.777 973.776)" fill="white"/>
<ellipse cx="151.543" cy="941.413" rx="2.36389" ry="2.56646" transform="rotate(-74.0577 151.543 941.413)" fill="white"/>
<ellipse cx="177.043" cy="948.697" rx="2.36389" ry="2.56646" transform="rotate(-74.0577 177.043 948.697)" fill="white"/>
<ellipse cx="218.996" cy="960.68" rx="2.36389" ry="2.56646" transform="rotate(-74.0577 218.996 960.68)" fill="white"/>
<ellipse cx="210.34" cy="990.987" rx="2.36389" ry="2.56646" transform="rotate(-74.0577 210.34 990.987)" fill="white"/>
<ellipse cx="247.772" cy="1095.1" rx="1.57593" ry="1.28323" transform="rotate(-74.0577 247.772 1095.1)" fill="white"/>
<ellipse cx="254.743" cy="1106.52" rx="1.18194" ry="1.71097" transform="rotate(-74.0577 254.743 1106.52)" fill="white"/>
<ellipse cx="242.314" cy="1078.38" rx="1.18194" ry="1.71097" transform="rotate(-74.0577 242.314 1078.38)" fill="white"/>
<ellipse cx="238.634" cy="1091.26" rx="1.18194" ry="1.71097" transform="rotate(-74.0577 238.634 1091.26)" fill="white"/>
<ellipse cx="252.185" cy="1081.2" rx="1.18194" ry="1.71097" transform="rotate(-74.0577 252.185 1081.2)" fill="white"/>
<ellipse cx="236.531" cy="1062.8" rx="1.18194" ry="1.28323" transform="rotate(-74.0577 236.531 1062.8)" fill="white"/>
<ellipse cx="251.34" cy="1067.03" rx="1.18194" ry="1.28323" transform="rotate(-74.0577 251.34 1067.03)" fill="white"/>
<ellipse cx="275.195" cy="1073.84" rx="1.18194" ry="1.28323" transform="rotate(-74.0577 275.195 1073.84)" fill="white"/>
<ellipse cx="270.219" cy="1091.27" rx="1.18194" ry="1.28323" transform="rotate(-74.0577 270.219 1091.27)" fill="white"/>
<ellipse cx="196.077" cy="1039.36" rx="1.57593" ry="1.28323" transform="rotate(-74.0577 196.077 1039.36)" fill="white"/>
<ellipse cx="203.044" cy="1050.77" rx="1.18194" ry="1.71097" transform="rotate(-74.0577 203.044 1050.77)" fill="white"/>
<ellipse cx="190.618" cy="1022.64" rx="1.18194" ry="1.71097" transform="rotate(-74.0577 190.618 1022.64)" fill="white"/>
<ellipse cx="186.939" cy="1035.52" rx="1.18194" ry="1.71097" transform="rotate(-74.0577 186.939 1035.52)" fill="white"/>
<ellipse cx="200.489" cy="1025.46" rx="1.18194" ry="1.71097" transform="rotate(-74.0577 200.489 1025.46)" fill="white"/>
<ellipse cx="184.84" cy="1007.06" rx="1.18194" ry="1.28323" transform="rotate(-74.0577 184.84 1007.06)" fill="white"/>
<ellipse cx="199.644" cy="1011.29" rx="1.18194" ry="1.28323" transform="rotate(-74.0577 199.644 1011.29)" fill="white"/>
<ellipse cx="223.5" cy="1018.1" rx="1.18194" ry="1.28323" transform="rotate(-74.0577 223.5 1018.1)" fill="white"/>
<ellipse cx="218.523" cy="1035.53" rx="1.18194" ry="1.28323" transform="rotate(-74.0577 218.523 1035.53)" fill="white"/>
<ellipse cx="126.366" cy="909.637" rx="1.57593" ry="1.28323" transform="rotate(-74.0577 126.366 909.637)" fill="white"/>
<ellipse cx="133.337" cy="921.052" rx="1.18194" ry="1.71097" transform="rotate(-74.0577 133.337 921.052)" fill="white"/>
<ellipse cx="120.911" cy="892.917" rx="1.18194" ry="1.71097" transform="rotate(-74.0577 120.911 892.917)" fill="white"/>
<ellipse cx="117.232" cy="905.798" rx="1.18194" ry="1.71097" transform="rotate(-74.0577 117.232 905.798)" fill="white"/>
<ellipse cx="130.782" cy="895.737" rx="1.18194" ry="1.71097" transform="rotate(-74.0577 130.782 895.737)" fill="white"/>
<ellipse cx="115.133" cy="877.335" rx="1.18194" ry="1.28323" transform="rotate(-74.0577 115.133 877.335)" fill="white"/>
<ellipse cx="129.937" cy="881.565" rx="1.18194" ry="1.28323" transform="rotate(-74.0577 129.937 881.565)" fill="white"/>
<ellipse cx="153.793" cy="888.379" rx="1.18194" ry="1.28323" transform="rotate(-74.0577 153.793 888.379)" fill="white"/>
<ellipse cx="148.812" cy="905.805" rx="1.18194" ry="1.28323" transform="rotate(-74.0577 148.812 905.805)" fill="white"/>
<ellipse cx="264.866" cy="1004.11" rx="1.57593" ry="1.28323" transform="rotate(-74.0577 264.866 1004.11)" fill="white"/>
<ellipse cx="271.837" cy="1015.52" rx="1.18194" ry="1.71097" transform="rotate(-74.0577 271.837 1015.52)" fill="white"/>
<ellipse cx="259.411" cy="987.387" rx="1.18194" ry="1.71097" transform="rotate(-74.0577 259.411 987.387)" fill="white"/>
<ellipse cx="255.732" cy="1000.27" rx="1.18194" ry="1.71097" transform="rotate(-74.0577 255.732 1000.27)" fill="white"/>
<ellipse cx="269.282" cy="990.206" rx="1.18194" ry="1.71097" transform="rotate(-74.0577 269.282 990.206)" fill="white"/>
<ellipse cx="253.629" cy="971.804" rx="1.18194" ry="1.28323" transform="rotate(-74.0577 253.629 971.804)" fill="white"/>
<ellipse cx="268.437" cy="976.034" rx="1.18194" ry="1.28323" transform="rotate(-74.0577 268.437 976.034)" fill="white"/>
<ellipse cx="292.293" cy="982.848" rx="1.18194" ry="1.28323" transform="rotate(-74.0577 292.293 982.848)" fill="white"/>
<ellipse cx="287.316" cy="1000.27" rx="1.18194" ry="1.28323" transform="rotate(-74.0577 287.316 1000.27)" fill="white"/>
<ellipse cx="196.46" cy="932.117" rx="1.57593" ry="1.28323" transform="rotate(-74.0577 196.46 932.117)" fill="white"/>
<ellipse cx="203.431" cy="943.532" rx="1.18194" ry="1.71097" transform="rotate(-74.0577 203.431 943.532)" fill="white"/>
<ellipse cx="191.005" cy="915.399" rx="1.18194" ry="1.71097" transform="rotate(-74.0577 191.005 915.399)" fill="white"/>
<ellipse cx="187.325" cy="928.279" rx="1.18194" ry="1.71097" transform="rotate(-74.0577 187.325 928.279)" fill="white"/>
<ellipse cx="200.872" cy="918.218" rx="1.18194" ry="1.71097" transform="rotate(-74.0577 200.872 918.218)" fill="white"/>
<ellipse cx="185.223" cy="899.816" rx="1.18194" ry="1.28323" transform="rotate(-74.0577 185.223 899.816)" fill="white"/>
<ellipse cx="200.031" cy="904.045" rx="1.18194" ry="1.28323" transform="rotate(-74.0577 200.031 904.045)" fill="white"/>
<ellipse cx="223.887" cy="910.86" rx="1.18194" ry="1.28323" transform="rotate(-74.0577 223.887 910.86)" fill="white"/>
<ellipse cx="218.906" cy="928.286" rx="1.18194" ry="1.28323" transform="rotate(-74.0577 218.906 928.286)" fill="white"/>
<ellipse cx="267.851" cy="1005.87" rx="2.36389" ry="2.56646" transform="rotate(-41.1018 267.851 1005.87)" fill="white"/>
<ellipse cx="267.222" cy="1029.12" rx="2.36389" ry="2.56646" transform="rotate(-41.1018 267.222 1029.12)" fill="white"/>
<ellipse cx="275.601" cy="976.402" rx="2.36389" ry="2.56646" transform="rotate(-41.1018 275.601 976.402)" fill="white"/>
<ellipse cx="257.789" cy="991.942" rx="2.36389" ry="2.56646" transform="rotate(-41.1018 257.789 991.942)" fill="white"/>
<ellipse cx="287.414" cy="989.94" rx="2.36389" ry="2.56646" transform="rotate(-41.1018 287.414 989.94)" fill="white"/>
<ellipse cx="282.164" cy="947.968" rx="2.36389" ry="2.56646" transform="rotate(-41.1018 282.164 947.968)" fill="white"/>
<ellipse cx="299.601" cy="967.952" rx="2.36389" ry="2.56646" transform="rotate(-41.1018 299.601 967.952)" fill="white"/>
<ellipse cx="328.285" cy="1000.83" rx="2.36389" ry="2.56646" transform="rotate(-41.1018 328.285 1000.83)" fill="white"/>
<ellipse cx="304.535" cy="1021.55" rx="2.36389" ry="2.56646" transform="rotate(-41.1018 304.535 1021.55)" fill="white"/>
<ellipse cx="279.305" cy="1129.27" rx="1.57593" ry="1.28323" transform="rotate(-41.1018 279.305 1129.27)" fill="white"/>
<ellipse cx="278.945" cy="1142.64" rx="1.18194" ry="1.71097" transform="rotate(-41.1018 278.945 1142.64)" fill="white"/>
<ellipse cx="283.82" cy="1112.28" rx="1.18194" ry="1.71097" transform="rotate(-41.1018 283.82 1112.28)" fill="white"/>
<ellipse cx="273.726" cy="1121.08" rx="1.18194" ry="1.71097" transform="rotate(-41.1018 273.726 1121.08)" fill="white"/>
<ellipse cx="290.57" cy="1120.01" rx="1.18194" ry="1.71097" transform="rotate(-41.1018 290.57 1120.01)" fill="white"/>
<ellipse cx="287.445" cy="1096.06" rx="1.18194" ry="1.28323" transform="rotate(-41.1018 287.445 1096.06)" fill="white"/>
<ellipse cx="297.57" cy="1107.66" rx="1.18194" ry="1.28323" transform="rotate(-41.1018 297.57 1107.66)" fill="white"/>
<ellipse cx="313.883" cy="1126.36" rx="1.18194" ry="1.28323" transform="rotate(-41.1018 313.883 1126.36)" fill="white"/>
<ellipse cx="300.223" cy="1138.27" rx="1.18194" ry="1.28323" transform="rotate(-41.1018 300.223 1138.27)" fill="white"/>
<ellipse cx="266.25" cy="1054.38" rx="1.57593" ry="1.28323" transform="rotate(-41.1018 266.25 1054.38)" fill="white"/>
<ellipse cx="265.89" cy="1067.75" rx="1.18194" ry="1.71097" transform="rotate(-41.1018 265.89 1067.75)" fill="white"/>
<ellipse cx="270.765" cy="1037.38" rx="1.18194" ry="1.71097" transform="rotate(-41.1018 270.765 1037.38)" fill="white"/>
<ellipse cx="260.672" cy="1046.19" rx="1.18194" ry="1.71097" transform="rotate(-41.1018 260.672 1046.19)" fill="white"/>
<ellipse cx="277.515" cy="1045.12" rx="1.18194" ry="1.71097" transform="rotate(-41.1018 277.515 1045.12)" fill="white"/>
<ellipse cx="274.394" cy="1021.16" rx="1.18194" ry="1.28323" transform="rotate(-41.1018 274.394 1021.16)" fill="white"/>
<ellipse cx="284.516" cy="1032.77" rx="1.18194" ry="1.28323" transform="rotate(-41.1018 284.516 1032.77)" fill="white"/>
<ellipse cx="300.828" cy="1051.46" rx="1.18194" ry="1.28323" transform="rotate(-41.1018 300.828 1051.46)" fill="white"/>
<ellipse cx="287.168" cy="1063.38" rx="1.18194" ry="1.28323" transform="rotate(-41.1018 287.168 1063.38)" fill="white"/>
<ellipse cx="278.328" cy="907.61" rx="1.57593" ry="1.28323" transform="rotate(-41.1018 278.328 907.61)" fill="white"/>
<ellipse cx="277.969" cy="920.981" rx="1.18194" ry="1.71097" transform="rotate(-41.1018 277.969 920.981)" fill="white"/>
<ellipse cx="282.844" cy="890.613" rx="1.18194" ry="1.71097" transform="rotate(-41.1018 282.844 890.613)" fill="white"/>
<ellipse cx="272.75" cy="899.419" rx="1.18194" ry="1.71097" transform="rotate(-41.1018 272.75 899.419)" fill="white"/>
<ellipse cx="289.594" cy="898.349" rx="1.18194" ry="1.71097" transform="rotate(-41.1018 289.594 898.349)" fill="white"/>
<ellipse cx="286.473" cy="874.394" rx="1.18194" ry="1.28323" transform="rotate(-41.1018 286.473 874.394)" fill="white"/>
<ellipse cx="296.594" cy="885.997" rx="1.18194" ry="1.28323" transform="rotate(-41.1018 296.594 885.997)" fill="white"/>
<ellipse cx="312.906" cy="904.692" rx="1.18194" ry="1.28323" transform="rotate(-41.1018 312.906 904.692)" fill="white"/>
<ellipse cx="299.246" cy="916.606" rx="1.18194" ry="1.28323" transform="rotate(-41.1018 299.246 916.606)" fill="white"/>
<ellipse cx="343.152" cy="1062.22" rx="1.57593" ry="1.28323" transform="rotate(-41.1018 343.152 1062.22)" fill="white"/>
<ellipse cx="342.789" cy="1075.59" rx="1.18194" ry="1.71097" transform="rotate(-41.1018 342.789 1075.59)" fill="white"/>
<ellipse cx="347.668" cy="1045.22" rx="1.18194" ry="1.71097" transform="rotate(-41.1018 347.668 1045.22)" fill="white"/>
<ellipse cx="337.574" cy="1054.03" rx="1.18194" ry="1.71097" transform="rotate(-41.1018 337.574 1054.03)" fill="white"/>
<ellipse cx="354.418" cy="1052.96" rx="1.18194" ry="1.71097" transform="rotate(-41.1018 354.418 1052.96)" fill="white"/>
<ellipse cx="351.293" cy="1029" rx="1.18194" ry="1.28323" transform="rotate(-41.1018 351.293 1029)" fill="white"/>
<ellipse cx="361.418" cy="1040.61" rx="1.18194" ry="1.28323" transform="rotate(-41.1018 361.418 1040.61)" fill="white"/>
<ellipse cx="377.726" cy="1059.3" rx="1.18194" ry="1.28323" transform="rotate(-41.1018 377.726 1059.3)" fill="white"/>
<ellipse cx="364.07" cy="1071.22" rx="1.18194" ry="1.28323" transform="rotate(-41.1018 364.07 1071.22)" fill="white"/>
<ellipse cx="324.914" cy="964.603" rx="1.57593" ry="1.28323" transform="rotate(-41.1018 324.914 964.603)" fill="white"/>
<ellipse cx="324.551" cy="977.973" rx="1.18194" ry="1.71097" transform="rotate(-41.1018 324.551 977.973)" fill="white"/>
<ellipse cx="329.43" cy="947.607" rx="1.18194" ry="1.71097" transform="rotate(-41.1018 329.43 947.607)" fill="white"/>
<ellipse cx="319.336" cy="956.413" rx="1.18194" ry="1.71097" transform="rotate(-41.1018 319.336 956.413)" fill="white"/>
<ellipse cx="336.176" cy="955.342" rx="1.18194" ry="1.71097" transform="rotate(-41.1018 336.176 955.342)" fill="white"/>
<ellipse cx="333.055" cy="931.387" rx="1.18194" ry="1.28323" transform="rotate(-41.1018 333.055 931.387)" fill="white"/>
<ellipse cx="343.18" cy="942.991" rx="1.18194" ry="1.28323" transform="rotate(-41.1018 343.18 942.991)" fill="white"/>
<ellipse cx="359.488" cy="961.686" rx="1.18194" ry="1.28323" transform="rotate(-41.1018 359.488 961.686)" fill="white"/>
<ellipse cx="345.832" cy="973.6" rx="1.18194" ry="1.28323" transform="rotate(-41.1018 345.832 973.6)" fill="white"/>
</svg>
