<svg width="20" height="20" viewBox="0 0 20 20" fill="none" xmlns="http://www.w3.org/2000/svg">
<path d="M9.86885 13.0616C10.2499 13.0616 10.5689 12.7426 10.5689 12.3704V3.26983L10.5157 1.94063L11.1094 2.56978L12.4564 4.00532C12.5804 4.1471 12.7665 4.21799 12.9349 4.21799C13.2982 4.21799 13.5817 3.95215 13.5817 3.58883C13.5817 3.40275 13.502 3.26097 13.3691 3.12805L10.3739 0.239256C10.1967 0.0620292 10.0461 0 9.86885 0C9.68276 0 9.53212 0.0620292 9.3549 0.239256L6.35977 3.12805C6.22685 3.26097 6.1471 3.40275 6.1471 3.58883C6.1471 3.95215 6.41294 4.21799 6.78511 4.21799C6.95348 4.21799 7.14843 4.1471 7.27249 4.00532L8.61941 2.56978L9.21311 1.94063L9.15995 3.26983V12.3704C9.15995 12.7426 9.48782 13.0616 9.86885 13.0616ZM4.78245 20H14.9464C16.7984 20 17.7288 19.0784 17.7288 17.253V8.40939C17.7288 6.58396 16.7984 5.66238 14.9464 5.66238H12.4741V7.08906H14.9198C15.7971 7.08906 16.3022 7.56757 16.3022 8.48915V17.1732C16.3022 18.0948 15.7971 18.5733 14.9198 18.5733H4.80018C3.91405 18.5733 3.42667 18.0948 3.42667 17.1732V8.48915C3.42667 7.56757 3.91405 7.08906 4.80018 7.08906H7.25476V5.66238H4.78245C2.93044 5.66238 2 6.58396 2 8.40939V17.253C2 19.0784 2.93044 20 4.78245 20Z" fill="#2E7CF6"/>
</svg>
