<svg width="20" height="20" viewBox="0 0 20 20" fill="none" xmlns="http://www.w3.org/2000/svg">
<g clip-path="url(#clip0_2_37)">
<g clip-path="url(#clip1_2_37)">
<path d="M4.66667 15.3333L4.095 14.9904C3.93761 15.2527 3.97895 15.5884 4.19527 15.8048C4.41157 16.0211 4.74735 16.0624 5.00967 15.9049L4.66667 15.3333ZM8.66667 8.66667L8.32367 8.095L8.18076 8.18076L8.095 8.32367L8.66667 8.66667ZM15.3333 4.66667L15.9049 5.00967C16.0624 4.74735 16.0211 4.41157 15.8048 4.19527C15.5884 3.97895 15.2527 3.93761 14.9904 4.095L15.3333 4.66667ZM11.3333 11.3333L11.6763 11.905L11.8192 11.8192L11.905 11.6763L11.3333 11.3333ZM18.6667 10C18.6667 14.7871 14.7871 18.6667 10 18.6667V20C15.5235 20 20 15.5235 20 10H18.6667ZM10 18.6667C5.21295 18.6667 1.33333 14.7871 1.33333 10H0C0 15.5235 4.47656 20 10 20V18.6667ZM1.33333 10C1.33333 5.21295 5.21295 1.33333 10 1.33333V0C4.47656 0 0 4.47656 0 10H1.33333ZM10 1.33333C14.7871 1.33333 18.6667 5.21295 18.6667 10H20C20 4.47656 15.5235 0 10 0V1.33333ZM5.23833 15.6763L9.23833 9.00967L8.095 8.32367L4.095 14.9904L5.23833 15.6763ZM9.00967 9.23833L15.6763 5.23833L14.9904 4.095L8.32367 8.095L9.00967 9.23833ZM14.7617 4.32367L10.7617 10.9903L11.905 11.6763L15.9049 5.00967L14.7617 4.32367ZM10.9903 10.7617L4.32367 14.7617L5.00967 15.9049L11.6763 11.905L10.9903 10.7617Z" fill="#2E7CF6"/>
</g>
</g>
<defs>
<clipPath id="clip0_2_37">
<rect width="20" height="20" fill="white"/>
</clipPath>
<clipPath id="clip1_2_37">
<rect width="20" height="20" fill="white"/>
</clipPath>
</defs>
</svg>
