<svg width="20" height="20" viewBox="0 0 20 20" fill="none" xmlns="http://www.w3.org/2000/svg">
<path d="M9.16667 9.29168V6.66668C9.16667 6.43057 9.24653 6.23265 9.40625 6.07293C9.56597 5.9132 9.76389 5.83334 10 5.83334C10.2361 5.83334 10.434 5.9132 10.5938 6.07293C10.7535 6.23265 10.8333 6.43057 10.8333 6.66668V9.29168L11.5833 8.56251C11.7361 8.40973 11.9271 8.33334 12.1563 8.33334C12.3854 8.33334 12.5833 8.41668 12.75 8.58334C12.9028 8.73612 12.9792 8.93057 12.9792 9.16668C12.9792 9.40279 12.9028 9.59723 12.75 9.75001L10.5833 11.9167C10.4167 12.0833 10.2222 12.1667 10 12.1667C9.77778 12.1667 9.58333 12.0833 9.41667 11.9167L7.25 9.75001C7.09722 9.59723 7.01736 9.40626 7.01042 9.17709C7.00347 8.94793 7.08333 8.75001 7.25 8.58334C7.40278 8.43057 7.59375 8.3507 7.82292 8.34376C8.05208 8.33682 8.25 8.40973 8.41667 8.56251L9.16667 9.29168ZM5.83333 19.1667C5.375 19.1667 4.98264 19.0035 4.65625 18.6771C4.32986 18.3507 4.16667 17.9583 4.16667 17.5V2.50001C4.16667 2.04168 4.32986 1.64932 4.65625 1.32293C4.98264 0.996538 5.375 0.833344 5.83333 0.833344H14.1667C14.625 0.833344 15.0174 0.996538 15.3438 1.32293C15.6701 1.64932 15.8333 2.04168 15.8333 2.50001V17.5C15.8333 17.9583 15.6701 18.3507 15.3438 18.6771C15.0174 19.0035 14.625 19.1667 14.1667 19.1667H5.83333ZM5.83333 13.3333H14.1667V5.00001H5.83333V13.3333ZM8.75 16.6667H11.25C11.3611 16.6667 11.4583 16.625 11.5417 16.5417C11.625 16.4583 11.6667 16.3611 11.6667 16.25C11.6667 16.1389 11.625 16.0417 11.5417 15.9583C11.4583 15.875 11.3611 15.8333 11.25 15.8333H8.75C8.63889 15.8333 8.54167 15.875 8.45833 15.9583C8.375 16.0417 8.33333 16.1389 8.33333 16.25C8.33333 16.3611 8.375 16.4583 8.45833 16.5417C8.54167 16.625 8.63889 16.6667 8.75 16.6667Z" fill="black"/>
</svg>
