<svg width="1983" height="275" viewBox="0 0 1983 275" fill="none" xmlns="http://www.w3.org/2000/svg">
<mask id="mask0_149_9668" style="mask-type:alpha" maskUnits="userSpaceOnUse" x="0" y="0" width="1980" height="275">
<rect width="1980" height="275" fill="#D9D9D9"/>
</mask>
<g mask="url(#mask0_149_9668)">
<path d="M986.68 280.76L1798.85 10.4502L1927.55 231.5L987.26 298.95L986.68 280.76Z" fill="black"/>
<path d="M194.12 3.89014L1033.91 280.15L1029.51 298.83L3.56995 229.62L194.12 3.89014Z" fill="black"/>
<path d="M194.12 3.89014L1033.91 280.15L1040.95 285.81L250.78 66.2901L194.12 3.89014Z" fill="#A2A2A2"/>
<path d="M194.53 1.37012L1033.83 279.91L1040.95 285.64L251.85 64.3501L194.53 1.37012Z" fill="black"/>
<path d="M376.43 3.89014L1048.41 280.15L1040.95 285.81L250.78 66.2901L376.43 3.89014Z" fill="black"/>
<path d="M376.43 3.89014L1048.41 280.15L1051.41 298.83L317.45 229.62L376.43 3.89014Z" fill="#9C9C9C"/>
<path d="M317.45 229.62L1051.41 298.83H1029.51L3.56995 229.62H317.45Z" fill="#808080"/>
<path d="M378.8 1.37012L318.94 231.5H0L194.53 1.37012L251.85 64.3501L378.8 1.37012ZM194.12 3.89012L3.57 229.62H317.45L376.43 3.89012L250.79 66.2901L194.12 3.89012Z" fill="black"/>
<path d="M376.43 3.89014L317.45 229.62H3.56995L194.12 3.89014L250.78 66.2901L376.43 3.89014Z" fill="white"/>
<path d="M318.93 231.51L1051.57 298.96L988.5 300L0 231.51H318.93Z" fill="black"/>
<path d="M378.8 1.37012L1048.5 279.91L1051.57 298.96L318.93 231.51L378.8 1.37012Z" fill="black"/>
<path d="M510.01 3.08984L1022.19 280.07L1012.13 298.83L287.68 229.62L510.01 3.08984Z" fill="black"/>
<path d="M510.01 3.08984L562.55 229.62H287.68L510.01 3.08984Z" fill="white"/>
<path d="M510.01 3.08984L1022.19 280.07L1031.3 298.83L562.55 229.62L510.01 3.08984Z" fill="#A1A1A1"/>
<path d="M562.55 229.62L1031.3 298.83H1012.13L287.68 229.62H562.55Z" fill="#808080"/>
<path d="M511.17 0L565.15 231.51H283.68L511.17 0ZM510.01 3.09L287.68 229.62H562.54L510.01 3.09Z" fill="black"/>
<path d="M511.17 0L1022.2 279.78L1031.52 298.96L565.15 231.51L511.17 0Z" fill="black"/>
<path d="M565.15 231.51L1031.52 298.96H1011.9L283.67 231.51H565.15Z" fill="black"/>
<mask id="mask1_149_9668" style="mask-type:luminance" maskUnits="userSpaceOnUse" x="559" y="7" width="444" height="292">
<path d="M994.53 298.96L635.12 231.41C628.82 230.23 622.85 228.64 617.21 226.67C611.59 224.7 606.32 222.34 601.42 219.61C596.52 216.88 592.02 213.79 587.91 210.33C583.81 206.89 580.1 203.09 576.81 198.96C572.32 193.32 568.71 187.18 565.98 180.6C563.27 174.07 561.43 167.12 560.46 159.81C559.49 152.56 559.38 144.96 560.11 137.07C560.84 129.18 562.39 121.17 564.77 112.86C567.15 104.55 570.13 96.7899 573.75 89.3599C577.33 81.9999 581.52 75.0299 586.27 68.4899C590.98 62.0099 596.25 55.9499 602.05 50.3399C607.8 44.7699 614.08 39.6499 620.85 34.9899C627.58 30.3699 634.65 26.3199 642.01 22.8399C649.34 19.3799 656.97 16.4799 664.86 14.1599C672.72 11.8399 680.84 10.0899 689.18 8.92992C697.52 7.76992 706.07 7.16992 714.81 7.16992C721.16 7.16992 727.44 7.60992 733.58 8.46992C739.72 9.32992 745.72 10.6099 751.47 12.2799C757.24 13.9499 762.78 16.0199 767.99 18.4599C773.2 20.8999 778.12 23.7299 782.61 26.8999L1002.73 282.3C1002.34 282.01 1001.92 281.75 1001.48 281.52C1001.04 281.29 1000.57 281.1 1000.1 280.95C999.63 280.8 999.13 280.67 998.63 280.59C998.13 280.51 997.63 280.47 997.12 280.47C996.43 280.47 995.76 280.53 995.11 280.63C994.46 280.73 993.85 280.9 993.27 281.12C992.69 281.34 992.14 281.6 991.62 281.92C991.1 282.24 990.63 282.61 990.19 283.03C989.75 283.45 989.36 283.91 989.03 284.41C988.7 284.91 988.41 285.44 988.17 286.01C987.93 286.58 987.76 287.18 987.63 287.81C987.5 288.44 987.44 289.1 987.42 289.78C987.4 290.46 987.45 291.12 987.55 291.76C987.65 292.4 987.8 293 988.01 293.57C988.22 294.14 988.48 294.68 988.79 295.18C989.1 295.68 989.47 296.15 989.89 296.57C990.2 296.88 990.52 297.16 990.87 297.42C991.22 297.68 991.59 297.9 991.97 298.1C992.35 298.3 992.76 298.47 993.19 298.62C993.62 298.77 994.05 298.88 994.51 298.96H994.53Z" fill="white"/>
</mask>
<g mask="url(#mask1_149_9668)">
<path d="M782.61 26.8799L1002.73 282.28C1002.34 281.99 1001.92 281.73 1001.48 281.5C1001.04 281.27 1000.57 281.08 1000.1 280.93C999.63 280.78 999.13 280.65 998.63 280.57C998.13 280.49 997.63 280.45 997.12 280.45C996.43 280.45 995.76 280.51 995.11 280.61C994.46 280.71 993.85 280.88 993.27 281.1C992.69 281.32 992.14 281.58 991.62 281.9C991.1 282.22 990.63 282.59 990.19 283.01C990.09 283.11 989.99 283.21 989.89 283.31C989.79 283.41 989.7 283.52 989.6 283.63C989.5 283.74 989.42 283.85 989.33 283.96C989.24 284.07 989.16 284.19 989.08 284.3L603.03 49.3899C604.4 48.0899 605.81 46.8099 607.24 45.5499C608.67 44.2899 610.13 43.0699 611.61 41.8699C613.09 40.6699 614.61 39.4999 616.15 38.3499C617.69 37.1999 619.25 36.0799 620.85 34.9899C627.58 30.3699 634.65 26.3199 642.01 22.8399C649.34 19.3799 656.97 16.4799 664.86 14.1599C672.72 11.8399 680.84 10.0899 689.18 8.92992C697.52 7.76992 706.07 7.16992 714.81 7.16992C721.16 7.16992 727.44 7.60992 733.58 8.46992C739.72 9.32992 745.72 10.6099 751.47 12.2799C757.24 13.9499 762.78 16.0199 767.99 18.4599C773.2 20.8999 778.12 23.7299 782.61 26.8999" fill="black"/>
<path d="M603.03 49.3899L989.09 284.32C989 284.45 988.92 284.58 988.83 284.71C988.74 284.84 988.67 284.98 988.59 285.12C988.51 285.26 988.44 285.4 988.38 285.54C988.32 285.68 988.25 285.83 988.19 285.97L586.54 68.0999C587.77 66.4199 589.04 64.7699 590.34 63.1399C591.64 61.5099 592.98 59.9299 594.36 58.3699C595.74 56.8099 597.14 55.2799 598.59 53.7799C600.04 52.2799 601.51 50.8199 603.02 49.3799" fill="black"/>
<path d="M586.55 68.1001L988.2 285.97C988.14 286.11 988.09 286.26 988.03 286.4C987.97 286.54 987.93 286.69 987.88 286.84C987.83 286.99 987.79 287.14 987.75 287.3C987.71 287.46 987.68 287.61 987.64 287.77L573.93 88.9601C574.84 87.1101 575.78 85.2901 576.76 83.5001C577.74 81.7101 578.75 79.9401 579.81 78.2001C580.87 76.4601 581.95 74.7501 583.07 73.0701C584.19 71.3901 585.35 69.7401 586.54 68.1101" fill="black"/>
<path d="M573.95 88.96L987.66 287.77C987.63 287.93 987.6 288.09 987.57 288.26C987.54 288.43 987.52 288.59 987.51 288.76C987.5 288.93 987.48 289.1 987.47 289.27C987.46 289.44 987.45 289.61 987.45 289.79C987.45 289.82 987.45 289.85 987.45 289.89C987.45 289.93 987.45 289.95 987.45 289.98C987.45 290.01 987.45 290.04 987.45 290.07C987.45 290.1 987.45 290.13 987.45 290.16L563.55 117.44C563.65 117.06 563.74 116.68 563.84 116.3C563.94 115.92 564.04 115.54 564.14 115.16C564.24 114.78 564.35 114.4 564.45 114.01C564.55 113.62 564.66 113.24 564.77 112.86C565.37 110.76 566.02 108.68 566.7 106.63C567.38 104.58 568.11 102.57 568.88 100.57C569.64 98.58 570.45 96.62 571.3 94.68C572.15 92.74 573.03 90.84 573.95 88.96Z" fill="black"/>
<path d="M563.54 117.43L987.44 290.15C987.44 290.45 987.46 290.74 987.48 291.03C987.5 291.32 987.54 291.6 987.59 291.88C987.64 292.16 987.69 292.43 987.76 292.69C987.83 292.95 987.91 293.21 988 293.47L560.32 158.65C559.93 155.43 559.71 152.15 559.66 148.8C559.61 145.45 559.71 142.07 559.99 138.62C560.27 135.17 560.7 131.69 561.29 128.15C561.88 124.62 562.64 121.05 563.55 117.43" fill="black"/>
<path d="M560.31 158.65L987.99 293.47C988.07 293.7 988.16 293.92 988.25 294.13C988.34 294.34 988.45 294.56 988.56 294.76C988.67 294.96 988.79 295.17 988.92 295.36C989.05 295.55 989.19 295.74 989.33 295.93L570.99 190.59C569.55 188.18 568.24 185.71 567.08 183.16C565.92 180.62 564.89 178.01 564 175.34C563.11 172.67 562.36 169.95 561.74 167.16C561.12 164.37 560.64 161.54 560.29 158.65" fill="black"/>
<path d="M571.02 190.59L989.36 295.93C989.4 295.98 989.45 296.04 989.49 296.09C989.53 296.14 989.58 296.2 989.63 296.25C989.68 296.3 989.72 296.35 989.77 296.41C989.82 296.47 989.87 296.51 989.92 296.56C990.03 296.67 990.14 296.78 990.26 296.88C990.38 296.98 990.49 297.08 990.61 297.18C990.73 297.28 990.85 297.37 990.98 297.46C991.11 297.55 991.23 297.64 991.36 297.72L593.48 214.6C591.89 213.47 590.34 212.3 588.84 211.09C587.34 209.88 585.9 208.61 584.51 207.3C583.12 205.99 581.78 204.64 580.5 203.25C579.22 201.86 577.99 200.42 576.81 198.94C576.28 198.27 575.76 197.59 575.25 196.91C574.74 196.23 574.25 195.54 573.76 194.84C573.27 194.14 572.81 193.44 572.35 192.73C571.89 192.02 571.45 191.3 571.01 190.58" fill="black"/>
<path d="M593.48 214.61L991.36 297.73C991.49 297.81 991.62 297.89 991.75 297.96C991.88 298.03 992.02 298.11 992.16 298.17C992.3 298.23 992.44 298.3 992.58 298.36C992.72 298.42 992.87 298.48 993.01 298.53L614.47 225.65C612.54 224.91 610.65 224.13 608.81 223.3C606.97 222.47 605.17 221.59 603.42 220.67C601.67 219.75 599.97 218.78 598.31 217.77C596.65 216.76 595.04 215.7 593.48 214.6" fill="black"/>
<path d="M614.47 225.66L993.01 298.54C993.13 298.58 993.25 298.63 993.38 298.67C993.51 298.71 993.63 298.75 993.76 298.78C993.89 298.81 994.02 298.85 994.15 298.88C994.28 298.91 994.41 298.94 994.54 298.96L635.13 231.41C633.3 231.07 631.49 230.69 629.71 230.27C627.93 229.85 626.18 229.41 624.46 228.93C622.74 228.45 621.05 227.94 619.38 227.39C617.71 226.84 616.08 226.27 614.48 225.65" fill="black"/>
</g>
<mask id="mask2_149_9668" style="mask-type:luminance" maskUnits="userSpaceOnUse" x="726" y="87" width="274" height="201">
<path d="M726.81 87.9702L999.19 287.69C999.19 287.69 999.22 287.71 999.23 287.72C999.24 287.73 999.26 287.74 999.27 287.75C999.28 287.76 999.3 287.77 999.31 287.78C999.32 287.79 999.34 287.8 999.35 287.81L728.61 89.3702C728.46 89.2502 728.32 89.1302 728.17 89.0102C728.02 88.8902 727.87 88.7702 727.72 88.6602C727.57 88.5502 727.42 88.4302 727.27 88.3102C727.12 88.1902 726.97 88.0802 726.81 87.9702Z" fill="white"/>
</mask>
<g mask="url(#mask2_149_9668)">
<path d="M726.81 87.9702L999.19 287.69C999.19 287.69 999.22 287.71 999.23 287.72C999.24 287.73 999.26 287.74 999.27 287.75C999.28 287.76 999.3 287.77 999.31 287.78C999.32 287.79 999.34 287.8 999.35 287.81L728.61 89.3702C728.46 89.2502 728.32 89.1302 728.17 89.0102C728.02 88.8902 727.87 88.7702 727.72 88.6602C727.57 88.5502 727.42 88.4302 727.27 88.3102C727.12 88.1902 726.97 88.0802 726.81 87.9702Z" fill="black"/>
</g>
<mask id="mask3_149_9668" style="mask-type:luminance" maskUnits="userSpaceOnUse" x="724" y="86" width="276" height="202">
<path d="M998.96 287.53C907.32 220.39 815.68 153.25 724.04 86.1099C724.28 86.2599 724.51 86.3999 724.75 86.5499C724.99 86.6999 725.22 86.8499 725.45 87.0099C725.68 87.1699 725.91 87.3199 726.14 87.4799C726.37 87.6399 726.59 87.7999 726.82 87.9699L999.2 287.68C999.2 287.68 999.16 287.65 999.14 287.64C999.12 287.63 999.1 287.61 999.08 287.6C999.06 287.59 999.04 287.57 999.02 287.56C999 287.55 998.98 287.53 998.96 287.52V287.53Z" fill="white"/>
</mask>
<g mask="url(#mask3_149_9668)">
<path d="M726.81 87.9698L999.19 287.69C999.03 287.57 998.87 287.47 998.7 287.39C998.53 287.31 998.36 287.23 998.18 287.17C998 287.11 997.82 287.07 997.63 287.04C997.44 287.01 997.25 286.99 997.06 286.99C996.79 286.99 996.53 287.02 996.29 287.07C996.05 287.12 995.82 287.21 995.61 287.31C995.4 287.41 995.2 287.54 995.03 287.69C994.86 287.84 994.7 288.01 994.57 288.19L664.44 93.9698C666.61 91.7698 669.05 89.7698 671.71 88.0298C674.36 86.2898 677.23 84.7898 680.27 83.5598C683.31 82.3398 686.52 81.3898 689.85 80.7398C693.18 80.0898 696.64 79.7598 700.19 79.7598C702.73 79.7598 705.2 79.9398 707.59 80.2798C709.99 80.6298 712.3 81.1498 714.53 81.8398C716.76 82.5298 718.91 83.3798 720.95 84.4098C722.99 85.4398 724.95 86.6198 726.79 87.9698" fill="#858585"/>
</g>
<path d="M782.61 26.8799L1002.73 282.29L999.34 287.8L728.61 89.3699L782.61 26.8799Z" fill="#848484"/>
<mask id="mask4_149_9668" style="mask-type:luminance" maskUnits="userSpaceOnUse" x="653" y="79" width="346" height="212">
<path d="M994.2 290.6C993.75 290.38 993.14 290.08 992.69 289.86C992.43 289.73 992.09 289.56 991.83 289.44C991.24 289.15 990.46 288.77 989.88 288.48C989.19 288.14 988.28 287.69 987.59 287.35C986.79 286.96 985.72 286.43 984.92 286.03C983.99 285.57 982.75 284.96 981.82 284.5C980.75 283.97 979.32 283.27 978.25 282.74C977.03 282.14 975.41 281.34 974.19 280.74C972.75 280.03 970.83 279.09 969.39 278.38C967.46 277.43 964.89 276.17 962.96 275.22C960.35 273.94 956.87 272.22 954.26 270.94C950.62 269.15 945.77 266.76 942.13 264.97C936.83 262.36 929.77 258.89 924.47 256.28C916.24 252.23 905.26 246.83 897.03 242.78C882.86 235.81 863.97 226.52 849.8 219.55C820.61 205.19 781.7 186.05 752.51 171.69C722.75 157.05 686.48 122.9 653.31 122.9C653.25 122.07 653.22 121.23 653.22 120.37C653.22 119.51 653.27 118.63 653.34 117.74C653.41 116.85 653.53 115.94 653.68 115.02C653.83 114.1 654.01 113.16 654.23 112.21C655.33 107.43 657.38 103 660.18 99.0503C662.96 95.1203 666.49 91.6603 670.57 88.8003C674.65 85.9403 679.26 83.6903 684.26 82.1403C689.25 80.5903 694.62 79.7603 700.2 79.7603C702.43 79.7603 704.61 79.9003 706.72 80.1603C708.83 80.4203 710.9 80.8303 712.9 81.3603C714.9 81.8903 716.83 82.5502 718.69 83.3402C720.55 84.1302 722.34 85.0502 724.04 86.0902C815.68 153.23 907.32 220.37 998.96 287.51C998.82 287.42 998.67 287.34 998.52 287.27C998.37 287.2 998.21 287.15 998.05 287.1C997.89 287.05 997.73 287.02 997.56 287C997.39 286.98 997.23 286.97 997.06 286.97C996.64 286.97 996.24 287.04 995.89 287.17C995.54 287.3 995.22 287.5 994.96 287.74C994.7 287.98 994.49 288.28 994.34 288.61C994.19 288.94 994.11 289.31 994.1 289.71C994.1 289.79 994.1 289.87 994.1 289.94C994.1 290.01 994.1 290.09 994.12 290.16C994.14 290.23 994.14 290.31 994.15 290.38C994.16 290.45 994.18 290.52 994.2 290.59V290.6Z" fill="white"/>
</mask>
<g mask="url(#mask4_149_9668)">
<path d="M726.81 87.9703L999.19 287.69C999.03 287.57 998.87 287.47 998.7 287.39C998.53 287.31 998.36 287.23 998.18 287.17C998 287.11 997.82 287.07 997.63 287.04C997.44 287.01 997.25 286.99 997.06 286.99C996.79 286.99 996.53 287.02 996.29 287.07C996.05 287.12 995.82 287.21 995.61 287.31C995.4 287.41 995.2 287.54 995.03 287.69C994.86 287.84 994.7 288.01 994.57 288.19L664.44 93.9703C666.61 91.7703 669.05 89.7703 671.71 88.0303C674.36 86.2903 677.23 84.7902 680.27 83.5602C683.31 82.3402 686.52 81.3902 689.85 80.7402C693.18 80.0902 696.64 79.7603 700.19 79.7603C702.73 79.7603 705.2 79.9403 707.59 80.2803C709.99 80.6303 712.3 81.1502 714.53 81.8402C716.76 82.5302 718.91 83.3803 720.95 84.4103C722.99 85.4403 724.95 86.6203 726.79 87.9703" fill="#858585"/>
<path d="M664.44 93.9702L994.57 288.19C994.57 288.19 994.52 288.27 994.49 288.31C994.46 288.35 994.44 288.39 994.42 288.43C994.4 288.47 994.38 288.51 994.36 288.56C994.34 288.61 994.32 288.65 994.3 288.69L659.62 99.8602C659.97 99.3402 660.34 98.8202 660.72 98.3102C661.1 97.8002 661.49 97.3002 661.89 96.8102C662.29 96.3202 662.71 95.8402 663.13 95.3602C663.55 94.8802 663.99 94.4202 664.44 93.9702Z" fill="#8A8A8A"/>
<path d="M659.62 99.8601L994.3 288.69C994.3 288.69 994.27 288.77 994.25 288.81C994.23 288.85 994.22 288.89 994.21 288.94C994.2 288.99 994.19 289.03 994.17 289.07C994.15 289.11 994.15 289.16 994.14 289.2L656.29 105.93C656.52 105.4 656.76 104.87 657.02 104.35C657.28 103.83 657.54 103.32 657.82 102.81C658.1 102.3 658.39 101.8 658.69 101.31C658.99 100.82 659.3 100.33 659.62 99.8501" fill="#8F8F8F"/>
<path d="M656.3 105.93L994.15 289.2C994.15 289.2 994.13 289.28 994.13 289.33C994.13 289.38 994.12 289.42 994.11 289.46C994.1 289.5 994.11 289.55 994.1 289.59C994.09 289.63 994.1 289.68 994.1 289.72C994.1 289.72 994.1 289.74 994.1 289.75C994.1 289.76 994.1 289.77 994.1 289.78C994.1 289.79 994.1 289.8 994.1 289.81C994.1 289.82 994.1 289.83 994.1 289.84L653.93 113.63C653.95 113.51 653.98 113.4 654 113.28C654.02 113.16 654.05 113.05 654.07 112.93C654.09 112.81 654.12 112.7 654.15 112.58C654.18 112.46 654.2 112.35 654.23 112.23C654.36 111.69 654.49 111.15 654.64 110.61C654.79 110.07 654.95 109.55 655.12 109.02C655.29 108.49 655.48 107.98 655.67 107.46C655.86 106.94 656.07 106.44 656.29 105.93" fill="#949494"/>
<path d="M653.93 113.62L994.1 289.83C994.1 289.92 994.1 290.01 994.11 290.1C994.12 290.19 994.13 290.27 994.14 290.36C994.15 290.45 994.17 290.52 994.19 290.6C994.21 290.68 994.23 290.76 994.26 290.83L653.67 125.76C653.5 124.84 653.38 123.9 653.3 122.93C653.22 121.96 653.2 120.97 653.22 119.96C653.24 118.95 653.31 117.91 653.43 116.86C653.55 115.81 653.71 114.73 653.93 113.63" fill="#999999"/>
</g>
<mask id="mask5_149_9668" style="mask-type:luminance" maskUnits="userSpaceOnUse" x="655" y="81" width="345" height="212">
<path d="M725.34 89.1101L999.09 287.78C998.94 287.67 998.78 287.57 998.62 287.49C998.46 287.41 998.29 287.34 998.12 287.28C997.95 287.22 997.77 287.18 997.6 287.15C997.43 287.12 997.24 287.11 997.06 287.11C996.66 287.11 996.28 287.18 995.94 287.3C995.6 287.42 995.3 287.61 995.05 287.84C994.8 288.07 994.6 288.35 994.46 288.67C994.32 288.99 994.24 289.34 994.24 289.72C994.24 290 994.26 290.27 994.32 290.51C994.38 290.75 994.47 290.98 994.59 291.18C994.71 291.38 994.86 291.56 995.03 291.72C995.2 291.88 995.4 292.01 995.63 292.11L668.81 141.64C666.03 140.36 663.64 138.74 661.67 136.8C659.7 134.86 658.16 132.64 657.06 130.13C655.96 127.62 655.32 124.86 655.14 121.86C654.96 118.86 655.26 115.64 656.04 112.22C657.08 107.67 659.03 103.45 661.69 99.6901C664.34 95.9501 667.7 92.6501 671.59 89.9301C675.47 87.2101 679.88 85.0601 684.65 83.5801C689.42 82.1001 694.54 81.3101 699.86 81.3101C702.29 81.3101 704.65 81.4801 706.94 81.8101C709.23 82.1401 711.45 82.6301 713.58 83.2901C715.71 83.9501 717.77 84.7601 719.73 85.7301C721.69 86.7001 723.56 87.8301 725.33 89.1101H725.34Z" fill="white"/>
</mask>
<g mask="url(#mask5_149_9668)">
<path d="M725.34 89.1103L999.09 287.78C998.94 287.67 998.78 287.57 998.62 287.49C998.46 287.41 998.29 287.34 998.12 287.28C997.95 287.22 997.77 287.18 997.6 287.15C997.43 287.12 997.24 287.11 997.06 287.11C996.8 287.11 996.56 287.14 996.32 287.19C996.08 287.24 995.87 287.32 995.67 287.42C995.47 287.52 995.28 287.64 995.12 287.78C994.96 287.92 994.81 288.08 994.69 288.26L665.74 94.8703C667.81 92.7703 670.14 90.8603 672.68 89.2003C675.22 87.5403 677.95 86.1003 680.86 84.9303C683.76 83.7603 686.83 82.8603 690.01 82.2403C693.19 81.6203 696.5 81.3003 699.89 81.3003C702.32 81.3003 704.68 81.4703 706.97 81.8003C709.26 82.1303 711.48 82.6203 713.61 83.2803C715.74 83.9403 717.8 84.7503 719.76 85.7203C721.72 86.6903 723.59 87.8203 725.36 89.1003" fill="black"/>
<path d="M665.73 94.8901L994.68 288.28C994.68 288.28 994.63 288.35 994.61 288.39C994.59 288.43 994.56 288.47 994.54 288.51C994.52 288.55 994.5 288.59 994.48 288.63C994.46 288.67 994.44 288.71 994.43 288.75L661.16 100.49C661.49 99.9901 661.84 99.5001 662.2 99.0201C662.56 98.5401 662.93 98.0601 663.31 97.6001C663.69 97.1401 664.09 96.6801 664.49 96.2201C664.89 95.7601 665.31 95.3301 665.74 94.9001" fill="black"/>
<path d="M661.15 100.48L994.42 288.74C994.42 288.74 994.39 288.82 994.38 288.86C994.37 288.9 994.35 288.94 994.34 288.98C994.33 289.02 994.32 289.06 994.31 289.1C994.3 289.14 994.29 289.18 994.28 289.22L658 106.24C658.22 105.74 658.45 105.24 658.69 104.74C658.93 104.24 659.18 103.76 659.45 103.28C659.72 102.8 659.99 102.32 660.27 101.86C660.55 101.4 660.85 100.93 661.16 100.47" fill="black"/>
<path d="M658 106.25L994.28 289.23C994.28 289.23 994.27 289.31 994.26 289.35C994.25 289.39 994.25 289.43 994.24 289.47C994.23 289.51 994.24 289.55 994.23 289.6C994.22 289.65 994.23 289.68 994.23 289.73C994.23 289.73 994.23 289.75 994.23 289.76C994.23 289.77 994.23 289.78 994.23 289.79C994.23 289.8 994.23 289.81 994.23 289.82C994.23 289.83 994.23 289.84 994.23 289.85L655.76 113.57C655.78 113.46 655.8 113.35 655.83 113.24C655.86 113.13 655.88 113.02 655.9 112.91C655.92 112.8 655.95 112.69 655.97 112.58C655.99 112.47 656.02 112.36 656.05 112.25C656.17 111.73 656.3 111.22 656.44 110.71C656.58 110.2 656.73 109.7 656.9 109.2C657.07 108.7 657.24 108.21 657.42 107.72C657.6 107.23 657.8 106.75 658.01 106.27" fill="black"/>
<path d="M655.76 113.56L994.23 289.84C994.23 289.93 994.23 290.01 994.24 290.09C994.25 290.17 994.26 290.25 994.27 290.33C994.28 290.41 994.3 290.49 994.32 290.56C994.34 290.63 994.36 290.71 994.39 290.78L655.53 125.09C655.37 124.22 655.25 123.32 655.18 122.4C655.11 121.48 655.08 120.54 655.1 119.57C655.12 118.6 655.18 117.62 655.29 116.62C655.4 115.62 655.56 114.59 655.76 113.55" fill="black"/>
<path d="M655.53 125.09L994.39 290.78C994.41 290.84 994.44 290.9 994.46 290.96C994.48 291.02 994.52 291.08 994.55 291.13C994.58 291.18 994.61 291.24 994.65 291.29C994.69 291.34 994.72 291.39 994.76 291.44L658.84 133.39C658.43 132.78 658.06 132.14 657.71 131.49C657.36 130.84 657.06 130.16 656.78 129.47C656.5 128.78 656.26 128.06 656.05 127.33C655.84 126.6 655.66 125.85 655.52 125.08" fill="black"/>
<path d="M658.85 133.41L994.77 291.46C994.77 291.46 994.85 291.56 994.89 291.6C994.93 291.64 994.98 291.69 995.03 291.73C995.08 291.77 995.13 291.81 995.18 291.85C995.23 291.89 995.28 291.92 995.34 291.96L665.26 139.68C664.6 139.25 663.98 138.79 663.38 138.32C662.78 137.85 662.22 137.34 661.68 136.82C661.14 136.3 660.64 135.75 660.17 135.18C659.7 134.61 659.26 134.02 658.85 133.41Z" fill="black"/>
<path d="M665.25 139.68L995.33 291.96C995.33 291.96 995.38 291.99 995.4 292C995.42 292.01 995.45 292.03 995.47 292.04C995.49 292.05 995.52 292.07 995.54 292.08C995.56 292.09 995.59 292.1 995.62 292.12L668.8 141.65C668.48 141.5 668.17 141.35 667.86 141.2C667.55 141.05 667.25 140.89 666.96 140.72C666.67 140.55 666.37 140.39 666.09 140.22C665.81 140.05 665.52 139.87 665.25 139.69" fill="black"/>
</g>
<path d="M784.93 26.52L1002.91 282.25L999.38 288.01L728.62 91.77L784.93 26.52Z" fill="black"/>
<mask id="mask6_149_9668" style="mask-type:luminance" maskUnits="userSpaceOnUse" x="655" y="131" width="341" height="162">
<path d="M994.5 291.32C994.56 291.42 994.63 291.52 994.71 291.6C994.79 291.68 994.87 291.77 994.96 291.85C995.05 291.93 995.14 292 995.25 292.06C995.36 292.12 995.46 292.18 995.57 292.23L667.75 143.23C666.34 142.59 665.02 141.86 663.8 141.05C662.58 140.24 661.46 139.36 660.45 138.4C659.44 137.44 658.52 136.4 657.71 135.3C656.9 134.2 656.2 133.02 655.61 131.77C768.58 184.95 881.54 238.13 994.51 291.31L994.5 291.32Z" fill="white"/>
</mask>
<g mask="url(#mask6_149_9668)">
<path d="M653.67 125.76L994.26 290.83C994.28 290.9 994.31 290.96 994.34 291.02C994.37 291.08 994.4 291.14 994.43 291.2C994.46 291.26 994.5 291.32 994.54 291.37C994.58 291.42 994.62 291.48 994.66 291.53L657.16 134.5C656.73 133.86 656.34 133.19 655.97 132.5C655.6 131.81 655.28 131.1 654.99 130.37C654.7 129.64 654.44 128.89 654.22 128.12C654 127.35 653.82 126.56 653.67 125.75" fill="#9E9E9E"/>
<path d="M657.15 134.52L994.65 291.55C994.69 291.6 994.73 291.65 994.78 291.7C994.83 291.75 994.87 291.79 994.92 291.84C994.97 291.89 995.02 291.93 995.07 291.97C995.12 292.01 995.18 292.05 995.24 292.08L663.86 141.12C663.17 140.67 662.51 140.19 661.89 139.69C661.27 139.19 660.67 138.66 660.11 138.11C659.55 137.56 659.02 136.98 658.53 136.39C658.04 135.8 657.57 135.17 657.15 134.53" fill="#999999"/>
<path d="M663.88 141.12L995.26 292.08C995.26 292.08 995.31 292.11 995.34 292.13C995.37 292.15 995.39 292.16 995.42 292.17C995.45 292.18 995.47 292.2 995.5 292.21C995.53 292.22 995.55 292.24 995.58 292.25L667.77 143.25C667.42 143.09 667.08 142.93 666.75 142.76C666.42 142.59 666.09 142.42 665.76 142.24C665.43 142.06 665.12 141.88 664.81 141.69C664.5 141.5 664.19 141.31 663.89 141.11" fill="#949494"/>
</g>
<mask id="mask7_149_9668" style="mask-type:luminance" maskUnits="userSpaceOnUse" x="667" y="135" width="333" height="158">
<path d="M995.57 292.25C994.78 291.89 993.72 291.41 992.93 291.05C992.47 290.84 991.85 290.56 991.39 290.35C990.3 289.86 988.85 289.2 987.76 288.7C986.37 288.07 984.52 287.23 983.14 286.6C982.29 286.22 981.16 285.7 980.32 285.32C978.19 284.35 975.35 283.06 973.21 282.09C970.19 280.72 966.16 278.88 963.14 277.51C961.1 276.58 958.38 275.35 956.34 274.42C950.4 271.72 942.48 268.12 936.54 265.42C925.41 260.36 910.58 253.62 899.45 248.56C889.23 243.91 875.59 237.72 865.37 233.07C806.09 206.12 727.04 170.2 667.76 143.25C669 143.82 670.32 144.32 671.71 144.75C673.1 145.18 674.56 145.55 676.09 145.84C677.62 146.13 679.22 146.36 680.88 146.51C682.54 146.66 684.27 146.74 686.07 146.74C689.36 146.74 692.6 146.51 695.78 146.04C698.96 145.57 702.09 144.87 705.17 143.93C708.25 142.99 711.29 141.82 714.29 140.4C717.29 138.98 720.24 137.34 723.17 135.46L999.52 291.63C999.33 291.78 999.13 291.91 998.93 292.03C998.73 292.15 998.52 292.24 998.31 292.31C998.1 292.38 997.88 292.44 997.65 292.48C997.42 292.52 997.19 292.54 996.95 292.54C996.82 292.54 996.69 292.54 996.57 292.52C996.45 292.5 996.33 292.49 996.21 292.47C996.09 292.45 995.98 292.42 995.87 292.38C995.76 292.34 995.66 292.31 995.56 292.26L995.57 292.25Z" fill="white"/>
</mask>
<g mask="url(#mask7_149_9668)">
<path d="M723.18 135.45L999.53 291.62C999.34 291.77 999.14 291.9 998.94 292.02C998.74 292.14 998.53 292.23 998.32 292.3C998.11 292.37 997.89 292.43 997.66 292.47C997.43 292.51 997.2 292.53 996.96 292.53C996.83 292.53 996.7 292.53 996.58 292.51C996.46 292.49 996.34 292.48 996.22 292.46C996.1 292.44 995.99 292.41 995.88 292.37C995.77 292.33 995.67 292.3 995.57 292.25L667.76 143.25C669 143.82 670.32 144.32 671.71 144.75C673.1 145.18 674.56 145.55 676.09 145.84C677.62 146.13 679.22 146.36 680.88 146.51C682.54 146.66 684.27 146.74 686.07 146.74C689.36 146.74 692.6 146.51 695.78 146.04C698.96 145.57 702.09 144.87 705.17 143.93C708.25 142.99 711.29 141.82 714.29 140.4C717.29 138.98 720.24 137.34 723.17 135.46" fill="black"/>
</g>
<path d="M723.18 135.45L999.53 291.62L1002.58 297.25L753.95 208.18L723.18 135.45Z" fill="#A1A1A1"/>
<path d="M724.17 132.9L999.57 291.42L1002.75 297.28L756.33 208.64L724.17 132.9Z" fill="black"/>
<path d="M756.33 208.64L1002.75 297.28L1002.71 297.32L755.62 209.11L756.33 208.64Z" fill="black"/>
<mask id="mask8_149_9668" style="mask-type:luminance" maskUnits="userSpaceOnUse" x="635" y="208" width="368" height="92">
<path d="M996.6 299.14C996.42 299.14 996.24 299.14 996.07 299.13C995.9 299.12 995.72 299.11 995.55 299.09C995.38 299.07 995.21 299.05 995.04 299.03C994.87 299.01 994.7 298.98 994.54 298.95L635.15 231.41C637.42 231.84 639.74 232.21 642.09 232.53C644.44 232.85 646.84 233.12 649.28 233.34C651.72 233.56 654.19 233.72 656.7 233.83C659.21 233.94 661.76 233.99 664.34 233.99C672.5 233.99 680.68 233.39 688.74 232.24C696.8 231.09 704.73 229.38 712.4 227.16C720.05 224.95 727.44 222.22 734.42 219.04C741.38 215.86 747.93 212.23 753.95 208.18L1002.58 297.25C1002.2 297.55 1001.78 297.82 1001.32 298.05C1000.86 298.28 1000.38 298.48 999.87 298.64C999.36 298.8 998.83 298.93 998.28 299.01C997.73 299.09 997.17 299.14 996.6 299.14Z" fill="white"/>
</mask>
<g mask="url(#mask8_149_9668)">
<path d="M753.95 208.18L1002.58 297.25C1002.2 297.55 1001.78 297.82 1001.32 298.05C1000.86 298.28 1000.38 298.48 999.87 298.64C999.36 298.8 998.83 298.93 998.28 299.01C997.73 299.09 997.17 299.14 996.6 299.14C996.42 299.14 996.24 299.14 996.07 299.13C995.9 299.12 995.72 299.11 995.55 299.09C995.38 299.07 995.21 299.05 995.04 299.03C994.87 299.01 994.7 298.98 994.54 298.95L635.13 231.4C637.41 231.83 639.72 232.2 642.08 232.52C644.44 232.84 646.83 233.11 649.27 233.33C651.71 233.55 654.18 233.71 656.69 233.82C659.2 233.93 661.75 233.98 664.34 233.98C672.5 233.98 680.68 233.38 688.74 232.23C696.8 231.08 704.73 229.37 712.4 227.15C720.05 224.94 727.44 222.21 734.42 219.03C741.38 215.85 747.93 212.22 753.95 208.17" fill="#858585"/>
</g>
<path d="M714.82 7.1499C721.17 7.1499 727.45 7.5899 733.59 8.4499C739.73 9.3099 745.73 10.5899 751.48 12.2599C757.23 13.9299 762.79 15.9999 768 18.4399C773.21 20.8799 778.13 23.7099 782.62 26.8799L728.61 89.3699C726.7 87.7899 724.65 86.3999 722.48 85.2099C720.32 84.0199 718.04 83.0099 715.65 82.2099C713.26 81.4099 710.78 80.7999 708.2 80.3899C705.62 79.9799 702.95 79.7799 700.2 79.7799C694.62 79.7799 689.25 80.6199 684.26 82.1599C679.26 83.7099 674.63 85.9699 670.57 88.8199C666.51 91.6699 662.96 95.1399 660.18 99.0699C657.38 103.02 655.34 107.45 654.23 112.23C653.04 117.38 652.92 122.1 653.78 126.29C654.64 130.5 656.49 134.17 659.25 137.2C662.02 140.24 665.7 142.62 670.2 144.25C674.71 145.88 680.03 146.74 686.08 146.74C689.37 146.74 692.61 146.51 695.79 146.04C698.97 145.57 702.1 144.87 705.18 143.93C708.26 142.99 711.3 141.82 714.3 140.4C717.3 138.98 720.25 137.34 723.18 135.46L753.95 208.18C747.93 212.23 741.38 215.86 734.42 219.04C727.44 222.23 720.05 224.95 712.4 227.16C704.73 229.38 696.79 231.09 688.74 232.24C680.67 233.39 672.49 233.99 664.34 233.99C654.59 233.99 645.36 233.22 636.7 231.69C628.06 230.17 620.01 227.91 612.61 224.92C605.24 221.95 598.52 218.27 592.52 213.91C586.55 209.57 581.3 204.57 576.82 198.94C572.33 193.3 568.72 187.16 565.99 180.58C563.28 174.05 561.44 167.1 560.47 159.79C559.5 152.54 559.39 144.94 560.12 137.05C560.85 129.24 562.4 121.15 564.78 112.84C567.13 104.62 570.14 96.7699 573.76 89.3399C577.34 81.9799 581.53 75.0099 586.28 68.4699C590.99 61.9899 596.26 55.9299 602.06 50.3199C607.81 44.7499 614.09 39.6299 620.86 34.9699C627.59 30.3499 634.66 26.2999 642.02 22.8199C649.35 19.3599 656.98 16.4599 664.87 14.1399C672.73 11.8199 680.85 10.0699 689.19 8.9099C697.52 7.7399 706.08 7.1499 714.82 7.1499Z" fill="white"/>
<mask id="mask9_149_9668" style="mask-type:luminance" maskUnits="userSpaceOnUse" x="635" y="209" width="368" height="91">
<path d="M994.56 299.1L635.05 233.38C637.31 233.79 639.6 234.15 641.93 234.46C644.26 234.77 646.64 235.03 649.05 235.24C651.46 235.45 653.91 235.6 656.39 235.71C658.87 235.82 661.39 235.87 663.95 235.87C672.31 235.87 680.69 235.25 688.95 234.05C697.2 232.85 705.33 231.08 713.18 228.78C721.01 226.48 728.57 223.66 735.7 220.36C742.83 217.06 749.5 213.3 755.63 209.11L1002.71 297.32C1002.32 297.63 1001.89 297.91 1001.43 298.15C1000.97 298.39 1000.47 298.6 999.95 298.76C999.43 298.92 998.88 299.06 998.32 299.14C997.76 299.22 997.19 299.27 996.6 299.27C996.42 299.27 996.25 299.27 996.07 299.26C995.89 299.25 995.72 299.24 995.55 299.23C995.38 299.22 995.21 299.2 995.04 299.17C994.87 299.14 994.71 299.12 994.55 299.09L994.56 299.1Z" fill="white"/>
</mask>
<g mask="url(#mask9_149_9668)">
<path d="M755.62 209.11L1002.7 297.32C1002.31 297.63 1001.88 297.91 1001.42 298.15C1000.96 298.39 1000.46 298.6 999.94 298.76C999.42 298.92 998.87 299.06 998.31 299.14C997.75 299.22 997.18 299.27 996.59 299.27C996.41 299.27 996.24 299.27 996.06 299.26C995.88 299.25 995.71 299.24 995.54 299.23C995.37 299.22 995.2 299.2 995.03 299.17C994.86 299.14 994.7 299.12 994.54 299.09L635.03 233.37C637.29 233.78 639.58 234.14 641.91 234.45C644.24 234.76 646.62 235.02 649.03 235.23C651.44 235.44 653.89 235.59 656.37 235.7C658.85 235.81 661.37 235.86 663.93 235.86C672.29 235.86 680.67 235.24 688.93 234.04C697.18 232.84 705.31 231.07 713.16 228.77C720.99 226.47 728.55 223.65 735.68 220.35C742.81 217.05 749.48 213.29 755.61 209.1" fill="black"/>
</g>
<path d="M723.21 133.55L724.17 132.91L756.33 208.64L755.62 209.12C749.49 213.31 742.8 217.08 735.69 220.37C728.58 223.66 721 226.5 713.17 228.79C705.32 231.09 697.19 232.86 688.94 234.06C680.68 235.26 672.29 235.88 663.94 235.88C654.05 235.88 644.68 235.09 635.9 233.54C627.13 231.99 618.96 229.69 611.46 226.66C603.96 223.63 597.17 219.89 591.08 215.46C584.99 211.03 579.7 205.96 575.15 200.23C570.59 194.5 566.93 188.26 564.16 181.58C561.41 174.95 559.55 167.9 558.57 160.47C557.6 153.11 557.49 145.41 558.24 137.41C558.98 129.49 560.57 121.29 562.99 112.87C565.38 104.54 568.44 96.59 572.12 89.06C575.76 81.6 580.01 74.54 584.84 67.91C589.62 61.34 594.98 55.2 600.86 49.52C606.7 43.88 613.07 38.68 619.94 33.97C626.76 29.29 633.93 25.18 641.4 21.65C648.83 18.14 656.56 15.21 664.55 12.85C672.51 10.5 680.74 8.73002 689.18 7.55002C697.62 6.37002 706.27 5.77002 715.12 5.77002C721.62 5.77002 728.05 6.23002 734.32 7.12002C740.59 8.01002 746.74 9.33002 752.62 11.05C758.5 12.77 764.18 14.91 769.49 17.43C774.82 19.96 779.82 22.87 784.38 26.14L784.93 26.54L728.63 91.79L727.94 91.19C726.07 89.57 724.06 88.15 721.93 86.92C719.8 85.69 717.55 84.67 715.2 83.84C712.85 83.01 710.38 82.39 707.82 81.97C705.26 81.55 702.61 81.34 699.88 81.34C694.56 81.34 689.43 82.14 684.67 83.61C679.91 85.08 675.49 87.24 671.61 89.96C667.72 92.69 664.36 95.98 661.71 99.72C659.05 103.48 657.1 107.7 656.06 112.25C654.94 117.15 654.82 121.64 655.64 125.62C656.47 129.62 658.23 133.11 660.87 135.99C663.51 138.88 667.02 141.14 671.31 142.68C675.61 144.23 680.68 145.05 686.44 145.05C689.71 145.05 692.92 144.81 696.07 144.34C699.22 143.87 702.33 143.15 705.38 142.19C708.43 141.24 711.44 140.04 714.42 138.6C717.4 137.16 720.32 135.49 723.23 133.57L723.21 133.55ZM664.33 233.99C672.49 233.99 680.67 233.39 688.73 232.24C696.79 231.09 704.72 229.38 712.39 227.16C720.04 224.95 727.43 222.22 734.41 219.04C741.37 215.86 747.92 212.23 753.94 208.18L723.17 135.46C720.24 137.35 717.28 138.99 714.29 140.4C711.3 141.81 708.25 142.99 705.17 143.93C702.09 144.87 698.96 145.57 695.78 146.04C692.6 146.51 689.36 146.74 686.07 146.74C680.03 146.74 674.7 145.88 670.19 144.25C665.68 142.62 662.01 140.24 659.24 137.2C656.48 134.17 654.63 130.5 653.77 126.29C652.91 122.08 653.04 117.38 654.22 112.23C655.32 107.45 657.37 103.02 660.17 99.07C662.97 95.12 666.48 91.68 670.56 88.82C674.64 85.96 679.25 83.71 684.25 82.16C689.24 80.61 694.61 79.78 700.19 79.78C702.94 79.78 705.61 79.99 708.19 80.39C710.77 80.79 713.26 81.41 715.64 82.21C718.02 83.01 720.31 84.02 722.47 85.21C724.63 86.4 726.68 87.8 728.6 89.37L782.61 26.88C778.13 23.71 773.22 20.89 767.99 18.44C762.76 15.99 757.24 13.93 751.47 12.26C745.71 10.59 739.72 9.31002 733.58 8.45002C727.45 7.59002 721.16 7.15002 714.81 7.15002C706.07 7.15002 697.51 7.74002 689.18 8.91002C680.85 10.08 672.72 11.83 664.86 14.14C656.98 16.46 649.34 19.36 642.01 22.82C634.65 26.3 627.58 30.35 620.85 34.97C614.08 39.62 607.8 44.75 602.05 50.32C596.25 55.93 590.98 61.99 586.27 68.47C581.52 75 577.33 81.97 573.75 89.34C570.13 96.77 567.13 104.62 564.77 112.84C562.41 121.06 560.83 129.24 560.11 137.05C559.39 144.86 559.49 152.54 560.46 159.79C561.43 167.1 563.27 174.05 565.98 180.58C568.71 187.16 572.32 193.3 576.81 198.94C581.29 204.57 586.55 209.57 592.51 213.91C598.47 218.25 605.22 221.95 612.6 224.92C620 227.9 628.05 230.17 636.69 231.69C645.33 233.21 654.58 233.99 664.33 233.99Z" fill="black"/>
<path d="M1838.47 12.4604L952.66 282.76H946.32L1758.5 12.4604H1838.47Z" fill="black"/>
<path d="M1755.96 11.0303H1839.25L1982.93 233.51H1887.21L1755.96 11.0303ZM1979.76 231.63L1838.48 12.4603H1758.51L1888.05 231.63H1979.77" fill="black"/>
<path d="M1838.47 12.4604L1979.76 231.62H1888.04L1758.5 12.4604H1838.47Z" fill="white"/>
<path d="M1982.93 233.51L953.58 300.96H946.91L1887.2 233.51H1982.93Z" fill="black"/>
<path d="M1630.44 15.4604L945.39 285.76H940L1562.34 15.4604H1630.44Z" fill="black"/>
<mask id="mask10_149_9668" style="mask-type:luminance" maskUnits="userSpaceOnUse" x="945" y="15" width="815" height="279">
<path d="M1740.54 108.03L950.46 293.96C950.89 293.84 951.27 293.66 951.6 293.43C951.93 293.2 952.22 292.91 952.44 292.58C952.66 292.25 952.84 291.87 952.95 291.46C953.06 291.05 953.11 290.6 953.09 290.13C953.05 289.04 952.76 288.22 952.29 287.6C951.82 286.98 951.18 286.58 950.44 286.3C949.7 286.02 948.85 285.89 947.99 285.82C947.13 285.75 946.23 285.75 945.39 285.75L1630.44 15.4604C1641.04 15.4604 1652.3 15.4604 1663.59 16.1904C1674.89 16.9204 1686.26 18.3804 1697.11 21.3104C1707.96 24.2404 1718.42 28.6804 1727.81 35.3804C1737.28 42.1404 1745.76 51.2404 1752.68 63.5504C1755.7 68.9204 1757.69 74.0204 1758.68 78.7404C1759.67 83.4604 1759.65 87.8505 1758.63 91.7205C1757.6 95.6005 1755.57 98.9804 1752.55 101.74C1749.53 104.5 1745.5 106.64 1740.53 108.04L1740.54 108.03Z" fill="white"/>
</mask>
<g mask="url(#mask10_149_9668)">
<path d="M1740.54 108.03L950.46 293.96C950.89 293.84 951.27 293.66 951.6 293.43C951.93 293.2 952.22 292.91 952.44 292.58C952.66 292.25 952.84 291.87 952.95 291.46C953.06 291.05 953.11 290.6 953.09 290.13C953.05 289.04 952.76 288.22 952.29 287.6C951.82 286.98 951.18 286.58 950.44 286.3C949.7 286.02 948.85 285.89 947.99 285.82C947.13 285.75 946.23 285.75 945.39 285.75L1630.44 15.4604C1641.04 15.4604 1652.3 15.4604 1663.59 16.1904C1674.89 16.9204 1686.26 18.3804 1697.11 21.3104C1707.96 24.2404 1718.42 28.6804 1727.81 35.3804C1737.28 42.1404 1745.76 51.2404 1752.68 63.5504C1755.7 68.9204 1757.69 74.0204 1758.68 78.7404C1759.67 83.4604 1759.65 87.8505 1758.63 91.7205C1757.6 95.6005 1755.57 98.9804 1752.55 101.74C1749.53 104.5 1745.5 106.64 1740.53 108.04" fill="black"/>
</g>
<path d="M1737.67 108.84L950.21 294.02L950.45 293.96L1740.54 108.03L1737.67 108.84Z" fill="black"/>
<path d="M1741.39 109.57L950.46 294.09L950.21 294.02L1737.67 108.84L1741.39 109.57Z" fill="black"/>
<mask id="mask11_149_9668" style="mask-type:luminance" maskUnits="userSpaceOnUse" x="949" y="109" width="888" height="195">
<path d="M1787.49 233.6C1508.1 256.98 1228.76 280.37 949.36 303.75C950.04 303.69 950.7 303.59 951.31 303.41C951.92 303.23 952.48 302.98 952.94 302.61C953.4 302.24 953.78 301.77 954.04 301.15C954.3 300.53 954.42 299.77 954.38 298.83C954.36 298.25 954.24 297.7 954.05 297.19C953.86 296.68 953.58 296.21 953.24 295.8C952.9 295.39 952.49 295.03 952.02 294.74C951.55 294.45 951.02 294.23 950.45 294.08L1741.37 109.57C1749.89 111.27 1758.29 113.95 1766.36 117.45C1774.46 120.97 1782.24 125.33 1789.48 130.38C1796.72 135.43 1803.51 141.26 1809.48 147.61C1815.5 154.01 1820.74 161 1824.97 168.4C1831.87 180.49 1835.37 190.43 1836.14 198.59C1836.91 206.75 1834.92 213.2 1830.85 218.13C1826.76 223.09 1820.6 226.56 1813.13 228.99C1805.66 231.42 1796.83 232.81 1787.48 233.59L1787.49 233.6Z" fill="white"/>
</mask>
<g mask="url(#mask11_149_9668)">
<path d="M1787.49 233.6L949.36 303.75C950.04 303.69 950.7 303.59 951.31 303.41C951.92 303.23 952.48 302.98 952.94 302.61C953.4 302.24 953.78 301.77 954.04 301.15C954.3 300.53 954.42 299.77 954.38 298.83C954.36 298.25 954.24 297.7 954.05 297.19C953.86 296.68 953.58 296.21 953.24 295.8C952.9 295.39 952.49 295.03 952.02 294.74C951.55 294.45 951.02 294.23 950.45 294.08L1741.37 109.57C1749.89 111.27 1758.29 113.95 1766.36 117.45C1774.46 120.97 1782.24 125.33 1789.48 130.38C1796.72 135.43 1803.51 141.26 1809.48 147.61C1815.5 154.01 1820.74 161 1824.97 168.4C1831.87 180.49 1835.37 190.43 1836.14 198.59C1836.91 206.75 1834.92 213.2 1830.85 218.13C1826.76 223.09 1820.6 226.56 1813.13 228.99C1805.66 231.42 1796.83 232.81 1787.48 233.59" fill="black"/>
</g>
<mask id="mask12_149_9668" style="mask-type:luminance" maskUnits="userSpaceOnUse" x="946" y="233" width="842" height="71">
<path d="M949.36 303.75C949.14 303.77 948.92 303.78 948.69 303.79C948.46 303.8 948.24 303.81 948.02 303.81C947.8 303.81 947.57 303.81 947.35 303.81C947.13 303.81 946.91 303.81 946.69 303.81L1749.81 234.61C1752.9 234.61 1756.04 234.61 1759.2 234.59C1762.36 234.57 1765.54 234.54 1768.71 234.48C1771.88 234.42 1775.05 234.32 1778.19 234.18C1781.33 234.04 1784.43 233.84 1787.48 233.59C1536.04 254.63 1200.79 282.69 949.35 303.74L949.36 303.75Z" fill="white"/>
</mask>
<g mask="url(#mask12_149_9668)">
<path d="M1787.49 233.6L949.36 303.75C949.14 303.77 948.92 303.78 948.69 303.79C948.46 303.8 948.24 303.81 948.02 303.81C947.8 303.81 947.57 303.81 947.35 303.81C947.13 303.81 946.91 303.81 946.69 303.81L1749.81 234.61C1752.9 234.61 1756.04 234.61 1759.2 234.59C1762.36 234.57 1765.54 234.54 1768.71 234.48C1771.88 234.42 1775.05 234.32 1778.19 234.18C1781.33 234.04 1784.43 233.85 1787.48 233.59" fill="#858585"/>
</g>
<path d="M1749.82 234.62L946.7 303.83H940.54L1661.6 234.62H1749.82Z" fill="#808080"/>
<path d="M1744.42 108.77C1752.84 110.71 1761.13 113.56 1769.07 117.2C1777.05 120.85 1784.7 125.3 1791.82 130.41C1798.98 135.55 1805.62 141.36 1811.51 147.71C1817.45 154.11 1822.63 161.06 1826.84 168.42C1836.28 184.93 1839.59 197.53 1838.38 207.11C1837.16 216.8 1831.32 223.32 1822.64 227.69C1813.91 232.09 1802.36 234.3 1789.77 235.4C1777.17 236.51 1763.58 236.51 1750.78 236.51H1660.53L1560.02 14.0303H1629.74C1639.95 14.0303 1651.11 14.0303 1662.48 14.7803C1673.87 15.5303 1685.51 17.0303 1696.7 20.0503C1707.89 23.0703 1718.79 27.6403 1728.56 34.5303C1738.43 41.4903 1747.27 50.8703 1754.42 63.5503C1757.41 68.8603 1759.43 73.9103 1760.5 78.6103C1761.57 83.3403 1761.68 87.7203 1760.84 91.6303C1760 95.5403 1758.19 99.0203 1755.45 101.91C1752.71 104.8 1749.01 107.13 1744.41 108.77H1744.42ZM1749.82 234.63C1762.4 234.63 1775.75 234.63 1788.13 233.55C1800.49 232.48 1811.86 230.33 1820.46 226.06C1829.02 221.81 1834.79 215.47 1836.06 206.06C1837.31 196.75 1834.15 184.49 1824.98 168.42C1820.76 161.02 1815.51 154.03 1809.49 147.63C1803.52 141.28 1796.77 135.48 1789.49 130.4C1782.21 125.32 1774.47 120.99 1766.37 117.47C1758.3 113.97 1749.9 111.29 1741.38 109.59L1737.66 108.85L1740.53 108.04C1745.5 106.64 1749.52 104.51 1752.55 101.74C1755.58 98.9703 1757.61 95.6103 1758.63 91.7203C1759.65 87.8503 1759.67 83.4903 1758.68 78.7403C1757.69 73.9903 1755.69 68.9203 1752.68 63.5503C1745.76 51.2403 1737.28 42.1403 1727.81 35.3803C1718.42 28.6803 1708 24.2503 1697.11 21.3103C1686.22 18.3703 1674.89 16.9203 1663.59 16.1903C1652.3 15.4603 1641.05 15.4603 1630.44 15.4603H1562.34L1661.6 234.63H1749.82Z" fill="black"/>
<path d="M1630.44 15.4604C1641.04 15.4604 1652.3 15.4604 1663.59 16.1904C1674.88 16.9204 1686.26 18.3804 1697.11 21.3104C1708 24.2504 1718.42 28.6804 1727.81 35.3804C1737.28 42.1404 1745.76 51.2404 1752.68 63.5504C1755.7 68.9204 1757.69 74.0204 1758.68 78.7404C1759.68 83.4904 1759.65 87.8505 1758.63 91.7205C1757.61 95.5905 1755.57 98.9804 1752.55 101.74C1749.53 104.5 1745.5 106.64 1740.53 108.04L1737.66 108.85L1741.38 109.59C1749.9 111.29 1758.3 113.97 1766.37 117.47C1774.47 120.99 1782.25 125.35 1789.49 130.4C1796.77 135.48 1803.52 141.28 1809.49 147.63C1815.51 154.03 1820.75 161.02 1824.98 168.42C1834.15 184.49 1837.31 196.75 1836.06 206.06C1834.79 215.48 1829.02 221.81 1820.46 226.06C1811.86 230.33 1800.49 232.48 1788.13 233.55C1775.75 234.63 1762.4 234.63 1749.82 234.63H1661.6L1562.34 15.4604H1630.44Z" fill="white"/>
<path d="M1750.77 236.51L946.7 303.96H940.41L1660.52 236.51H1750.77Z" fill="black"/>
<mask id="mask13_149_9668" style="mask-type:luminance" maskUnits="userSpaceOnUse" x="946" y="235" width="843" height="69">
<path d="M1788.46 235.51C1508.75 258.3 1229.08 281.1 949.37 303.89C949.15 303.91 948.93 303.92 948.7 303.93C948.47 303.94 948.25 303.95 948.03 303.95C947.81 303.95 947.58 303.95 947.36 303.95C947.14 303.95 946.92 303.95 946.71 303.95L1750.78 236.5C1753.87 236.5 1757.01 236.5 1760.16 236.48C1763.31 236.46 1766.5 236.43 1769.67 236.37C1772.84 236.31 1776.01 236.21 1779.15 236.07C1782.29 235.93 1785.4 235.74 1788.45 235.49L1788.46 235.51Z" fill="white"/>
</mask>
<g mask="url(#mask13_149_9668)">
<path d="M1788.46 235.51L949.37 303.89C949.15 303.91 948.93 303.92 948.7 303.93C948.47 303.94 948.25 303.95 948.03 303.95C947.81 303.95 947.58 303.95 947.36 303.95C947.14 303.95 946.92 303.95 946.71 303.95L1750.78 236.5C1753.87 236.5 1757.01 236.5 1760.16 236.48C1763.31 236.46 1766.5 236.43 1769.67 236.37C1772.84 236.31 1776.01 236.21 1779.15 236.07C1782.29 235.93 1785.4 235.74 1788.45 235.49" fill="black"/>
</g>
<path d="M1679.7 238.62L983.67 307.83L973.63 289.07L1461.43 12.0898L1679.7 238.62Z" fill="black"/>
<path d="M1679.7 238.62L983.67 307.83H964.49L1404.86 238.62H1679.7Z" fill="#808080"/>
<path d="M1404.86 238.62L964.49 307.83L973.63 289.07L1461.43 12.0898L1404.86 238.62Z" fill="#808080"/>
<path d="M1461.43 12.0898L1679.7 238.62H1404.86L1461.43 12.0898Z" fill="white"/>
<path d="M1402.56 239.14L964.32 307.86L973.62 288.78L1460.33 9L1402.56 239.14Z" fill="black"/>
<path d="M1683.7 240.51L983.89 307.96H964.27L1402.22 240.51H1683.7Z" fill="black"/>
<path d="M1402.22 240.51L964.27 307.96L964.32 307.86L1402.56 239.14L1402.22 240.51Z" fill="black"/>
<path d="M1461.52 10.22L1683.7 240.51H1402.23L1402.57 239.15L1460.33 9L1461.52 10.22ZM1461.43 12.09L1404.86 238.62H1679.7L1461.43 12.09Z" fill="black"/>
<path d="M1399.43 10.4604L1026.2 280.76H1004.18L1121.45 10.4604H1399.43Z" fill="black"/>
<path d="M1372.28 239.67L1020.34 299.55L1026.2 280.76L1399.43 10.4604L1372.28 239.67Z" fill="black"/>
<path d="M1284.19 139.23L1015.38 291.92L1015.32 291.84L1283.22 138.13L1284.19 139.23Z" fill="#808080"/>
<path d="M1372.28 239.67L1020.34 299.55L1015.38 291.92L1284.19 139.23L1372.28 239.67Z" fill="#808080"/>
<path d="M1372.35 242.38L1020.3 299.75L1015.32 292.09L1283.77 141.24L1372.35 242.38Z" fill="black"/>
<path d="M1230.39 239.67L1010.49 299.55L1015.32 291.84L1283.22 138.13L1230.39 239.67Z" fill="black"/>
<path d="M1230.39 239.67L1010.49 299.55L1004.18 280.76L1121.45 10.4604L1230.39 239.67Z" fill="#808080"/>
<path d="M1119 9.03027H1401.36L1401.25 9.96027L1373.83 244.07L1372.35 242.38L1283.77 141.24L1230.43 244.07L1229.52 242.16L1119 9.03027ZM1372.28 239.67L1399.43 10.4603H1121.45L1230.4 239.67L1283.22 138.13L1284.19 139.23L1372.28 239.67Z" fill="black"/>
<path d="M1399.43 10.4604L1372.28 239.67L1284.19 139.23L1283.22 138.13L1230.39 239.67L1121.45 10.4604H1399.43Z" fill="white"/>
<path d="M1229.52 242.15L1010.41 299.73L1004 280.63L1119 9.03027L1229.52 242.15Z" fill="black"/>
<path d="M1230.44 244.07L1010.45 299.87L1010.41 299.73L1229.52 242.15L1230.44 244.07Z" fill="black"/>
<path d="M1373.83 244.07L1020.38 299.87L1020.3 299.75L1372.35 242.38L1373.83 244.07Z" fill="black"/>
<path d="M1108.95 10.46L1014.58 280.76H1008.24L1028.96 10.46H1108.95Z" fill="black"/>
<path d="M1124 229.62L1014.66 298.83H1008.26L1032.27 229.62H1124Z" fill="#808080"/>
<path d="M1027.26 9.02979H1110.54L1126.07 231.51H1030.36L1027.26 9.02979ZM1124.01 229.63L1108.96 10.4598H1028.97L1032.27 229.63H1124.01Z" fill="black"/>
<path d="M1108.95 10.46L1124 229.62H1032.27L1028.96 10.46H1108.95Z" fill="white"/>
<path d="M1126.07 231.51L1014.8 298.96H1008.13L1030.36 231.51H1126.07Z" fill="black"/>
<path d="M1003.06 10.4604L1020.01 280.76H1013.67L923.07 10.4604H1003.06Z" fill="black"/>
<path d="M891.98 10.4604L1011.21 280.76H1004.87L811.99 10.4604H891.98Z" fill="black"/>
<path d="M916.97 103.05L1013.63 288.96H1011.16L883.95 103.05H916.97Z" fill="black"/>
<path d="M916.13 115.82L1013.63 290.02H1011.15L882.84 115.82H916.13Z" fill="#808080"/>
<path d="M914.21 117.45L1013.49 290.15H1011.29L884.51 117.45H914.21Z" fill="black"/>
<path d="M1003.06 10.4604L1000.36 229.62H908.62L916.13 115.82H882.84L872.97 229.62H781.23L811.99 10.4604H891.98L883.95 103.05H916.97L923.07 10.4604H1003.06Z" fill="white"/>
<path d="M1000.36 229.62L1019.99 298.83H1013.59L908.62 229.62H1000.36Z" fill="#808080"/>
<path d="M872.97 229.62L1011.1 298.83H1004.7L781.23 229.62H872.97Z" fill="#808080"/>
<path d="M874.74 231.51L1011.24 298.96H1004.57L779.03 231.51H874.74Z" fill="black"/>
<path d="M1002.27 231.51L1020.13 298.96H1013.45L906.57 231.51H1002.27Z" fill="black"/>
<path d="M921.48 9.03027H1004.76L1002.27 231.51H906.56L914.21 117.45H884.5L874.73 231.51H779.02L810.5 9.03027H893.78L885.87 101.45H915.28L921.48 9.03027ZM1000.36 229.63L1003.06 10.4603H923.07L916.97 103.05H883.95L891.98 10.4603H811.99L781.23 229.63H872.97L882.84 115.83H916.13L908.63 229.63H1000.37" fill="black"/>
<path d="M882.5 147L885 118.5L913 149L910 176.5L882.5 147Z" fill="black" stroke="black"/>
</g>
</svg>
