<svg width="201" height="50" viewBox="0 0 201 50" fill="none" xmlns="http://www.w3.org/2000/svg">
<path d="M200.54 9.70652V33.4396C200.54 38.8327 199.076 42.8686 196.147 45.5473C193.219 48.2617 189.004 49.6189 183.504 49.6189C180.647 49.6189 177.968 49.2974 175.468 48.6546C172.968 48.0117 170.843 47.0652 169.093 45.8152L172.789 38.6899C173.968 39.6542 175.45 40.4042 177.236 40.94C179.057 41.5114 180.843 41.7971 182.593 41.7971C185.272 41.7971 187.236 41.2078 188.486 40.0292C189.736 38.8506 190.361 37.1005 190.361 34.779V33.8147C188.397 36.1005 185.522 37.2434 181.736 37.2434C179.164 37.2434 176.789 36.6719 174.611 35.529C172.432 34.3504 170.7 32.7075 169.414 30.6002C168.128 28.4573 167.485 25.9929 167.485 23.2071C167.485 20.457 168.128 18.0283 169.414 15.9211C170.7 13.7781 172.432 12.1352 174.611 10.9923C176.789 9.81367 179.164 9.22437 181.736 9.22437C185.879 9.22437 188.915 10.5637 190.843 13.2424V9.70652H200.54ZM184.147 29.1538C185.968 29.1538 187.468 28.6002 188.647 27.493C189.861 26.3858 190.468 24.9572 190.468 23.2071C190.468 21.457 189.879 20.0462 188.701 18.9748C187.522 17.8676 186.004 17.314 184.147 17.314C182.29 17.314 180.754 17.8676 179.539 18.9748C178.361 20.0462 177.771 21.457 177.771 23.2071C177.771 24.9572 178.379 26.3858 179.593 27.493C180.807 28.6002 182.325 29.1538 184.147 29.1538Z" fill="#004B3E"/>
<path d="M162.754 9.70652V38.7434H153.057V35.8505C151.164 38.1005 148.307 39.2256 144.485 39.2256C141.842 39.2256 139.432 38.6184 137.253 37.4041C135.11 36.154 133.396 34.3861 132.11 32.1003C130.86 29.8145 130.235 27.1715 130.235 24.1714C130.235 21.1713 130.86 18.5462 132.11 16.2961C133.396 14.0103 135.11 12.2602 137.253 11.0459C139.432 9.83153 141.842 9.22437 144.485 9.22437C147.914 9.22437 150.611 10.2244 152.575 12.2245V9.70652H162.754ZM146.628 31.136C148.414 31.136 149.879 30.5288 151.021 29.3145C152.164 28.0644 152.736 26.3501 152.736 24.1714C152.736 22.0285 152.164 20.3498 151.021 19.1355C149.879 17.9212 148.414 17.314 146.628 17.314C144.843 17.314 143.378 17.9212 142.235 19.1355C141.092 20.3498 140.521 22.0285 140.521 24.1714C140.521 26.3501 141.092 28.0644 142.235 29.3145C143.378 30.5288 144.843 31.136 146.628 31.136Z" fill="#004B3E"/>
<path d="M128.924 13.0282C125.781 11.2781 122.584 10.1173 119.334 9.54589V38.7435H108.727V9.54589C105.405 10.1173 102.208 11.2781 99.1369 13.0282L95.6011 5.31357C98.2083 3.74208 101.083 2.5456 104.226 1.72414C107.405 0.902675 110.673 0.491943 114.03 0.491943C117.388 0.491943 120.638 0.902675 123.781 1.72414C126.96 2.5456 129.852 3.74208 132.46 5.31357L128.924 13.0282Z" fill="#004B3E"/>
<path d="M80.7827 31.4574C82.1756 31.4574 83.3721 31.261 84.3721 30.8681C85.4078 30.4752 86.4436 29.8324 87.4794 28.9395L92.7832 34.5111C90.033 37.6541 85.9257 39.2256 80.4612 39.2256C77.0682 39.2256 74.086 38.5827 71.5144 37.2969C68.9429 36.0112 66.9428 34.2254 65.5142 31.9396C64.1213 29.6538 63.4248 27.0644 63.4248 24.1714C63.4248 21.3141 64.1213 18.7605 65.5142 16.5104C66.9071 14.2246 68.8179 12.4388 71.2466 11.153C73.7109 9.86725 76.4611 9.22437 79.4969 9.22437C82.3184 9.22437 84.89 9.81367 87.2115 10.9923C89.5687 12.1352 91.4438 13.8317 92.8367 16.0818C94.2296 18.2962 94.9261 20.9391 94.9261 24.0107L74.1931 27.9751C75.3003 30.2967 77.4968 31.4574 80.7827 31.4574ZM79.5505 16.4568C77.8004 16.4568 76.3718 17.0104 75.2646 18.1176C74.1574 19.1891 73.5324 20.7427 73.3895 22.7785L85.1757 20.4748C84.8185 19.2605 84.1399 18.2962 83.1399 17.5819C82.1399 16.8318 80.9434 16.4568 79.5505 16.4568Z" fill="#004B3E"/>
<path d="M44.4168 0.491943C48.8456 0.491943 52.2922 1.81343 54.7566 4.45639C57.2567 7.06364 58.5067 10.8495 58.5067 15.814V38.7435H47.8991V16.1354C47.8991 13.8854 47.3098 12.1889 46.1312 11.0459C44.9526 9.86733 43.3811 9.27802 41.4167 9.27802C39.3095 9.27802 37.6309 9.90305 36.3808 11.1531C35.1665 12.3674 34.5593 14.2068 34.5593 16.6712V38.7435H23.9517V16.1354C23.9517 13.8854 23.3981 12.1889 22.2909 11.0459C21.2195 9.86733 19.7373 9.27802 17.8443 9.27802C15.8085 9.27802 14.1835 9.90305 12.9691 11.1531C11.7548 12.3674 11.1476 14.2068 11.1476 16.6712V38.7435H0.540039V1.24197H10.8262V5.42072C11.9691 3.81351 13.4334 2.59917 15.2192 1.77771C17.0407 0.920533 19.1479 0.491943 21.5409 0.491943C24.0053 0.491943 26.1482 0.938391 27.9697 1.83129C29.827 2.72418 31.327 4.0278 32.4699 5.74216C33.7557 4.0278 35.4343 2.72418 37.5058 1.83129C39.5774 0.938391 41.881 0.491943 44.4168 0.491943Z" fill="#004B3E"/>
</svg>
