<svg width="40" height="40" viewBox="0 0 40 40" fill="none" xmlns="http://www.w3.org/2000/svg">
<g clip-path="url(#clip0_290_238)">
<path d="M30.5 9.51668C29.85 8.86668 28.8 8.86668 28.15 9.51668L20 17.65L11.85 9.50001C11.2 8.85001 10.15 8.85001 9.50001 9.50001C8.85001 10.15 8.85001 11.2 9.50001 11.85L17.65 20L9.50001 28.15C8.85001 28.8 8.85001 29.85 9.50001 30.5C10.15 31.15 11.2 31.15 11.85 30.5L20 22.35L28.15 30.5C28.8 31.15 29.85 31.15 30.5 30.5C31.15 29.85 31.15 28.8 30.5 28.15L22.35 20L30.5 11.85C31.1333 11.2167 31.1333 10.15 30.5 9.51668V9.51668Z" fill="white"/>
</g>
<defs>
<clipPath id="clip0_290_238">
<rect width="40" height="40" fill="white"/>
</clipPath>
</defs>
</svg>
